<?xml version="1.0" encoding="utf-8" standalone="no"?>
<!DOCTYPE svg PUBLIC "-//W3C//DTD SVG 1.1//EN"
  "http://www.w3.org/Graphics/SVG/1.1/DTD/svg11.dtd">
<svg xmlns:xlink="http://www.w3.org/1999/xlink" width="669.4443pt" height="416.16pt" viewBox="0 0 669.4443 416.16" xmlns="http://www.w3.org/2000/svg" version="1.1">
 <metadata>
  <rdf:RDF xmlns:dc="http://purl.org/dc/elements/1.1/" xmlns:cc="http://creativecommons.org/ns#" xmlns:rdf="http://www.w3.org/1999/02/22-rdf-syntax-ns#">
   <cc:Work>
    <dc:type rdf:resource="http://purl.org/dc/dcmitype/StillImage"/>
    <dc:date>2025-11-12T17:45:39.167219</dc:date>
    <dc:format>image/svg+xml</dc:format>
    <dc:creator>
     <cc:Agent>
      <dc:title>Matplotlib v3.10.6, https://matplotlib.org/</dc:title>
     </cc:Agent>
    </dc:creator>
   </cc:Work>
  </rdf:RDF>
 </metadata>
 <defs>
  <style type="text/css">*{stroke-linejoin: round; stroke-linecap: butt}</style>
 </defs>
 <g id="figure_1">
  <g id="patch_1">
   <path d="M 0 416.16 
L 669.4443 416.16 
L 669.4443 0 
L 0 0 
z
" style="fill: #ffffff"/>
  </g>
  <g id="axes_1">
   <g id="patch_2">
    <path d="M 75.075706 165.985781 
L 207.386904 165.985781 
L 207.386904 21.789375 
L 75.075706 21.789375 
z
" style="fill: #ffffff"/>
   </g>
   <g id="matplotlib.axis_1">
    <g id="xtick_1">
     <g id="line2d_1">
      <defs>
       <path id="m77b8b3d231" d="M 0 0 
L 0 6 
" style="stroke: #262626; stroke-width: 1.25"/>
      </defs>
      <g>
       <use xlink:href="#m77b8b3d231" x="75.075706" y="165.985781" style="fill: #262626; stroke: #262626; stroke-width: 1.25"/>
      </g>
     </g>
     <g id="text_1">
      <!-- 1.0 -->
      <g style="fill: #262626" transform="translate(67.430706 183.359375) scale(0.11 -0.11)">
       <defs>
        <path id="ArialMT-31" d="M 2384 0 
L 1822 0 
L 1822 3584 
Q 1619 3391 1289 3197 
Q 959 3003 697 2906 
L 697 3450 
Q 1169 3672 1522 3987 
Q 1875 4303 2022 4600 
L 2384 4600 
L 2384 0 
z
" transform="scale(0.015625)"/>
        <path id="ArialMT-2e" d="M 581 0 
L 581 641 
L 1222 641 
L 1222 0 
L 581 0 
z
" transform="scale(0.015625)"/>
        <path id="ArialMT-30" d="M 266 2259 
Q 266 3072 433 3567 
Q 600 4063 929 4331 
Q 1259 4600 1759 4600 
Q 2128 4600 2406 4451 
Q 2684 4303 2865 4023 
Q 3047 3744 3150 3342 
Q 3253 2941 3253 2259 
Q 3253 1453 3087 958 
Q 2922 463 2592 192 
Q 2263 -78 1759 -78 
Q 1097 -78 719 397 
Q 266 969 266 2259 
z
M 844 2259 
Q 844 1131 1108 757 
Q 1372 384 1759 384 
Q 2147 384 2411 759 
Q 2675 1134 2675 2259 
Q 2675 3391 2411 3762 
Q 2147 4134 1753 4134 
Q 1366 4134 1134 3806 
Q 844 3388 844 2259 
z
" transform="scale(0.015625)"/>
       </defs>
       <use xlink:href="#ArialMT-31"/>
       <use xlink:href="#ArialMT-2e" transform="translate(55.615234 0)"/>
       <use xlink:href="#ArialMT-30" transform="translate(83.398438 0)"/>
      </g>
     </g>
    </g>
    <g id="xtick_2">
     <g id="line2d_2">
      <g>
       <use xlink:href="#m77b8b3d231" x="119.179439" y="165.985781" style="fill: #262626; stroke: #262626; stroke-width: 1.25"/>
      </g>
     </g>
     <g id="text_2">
      <!-- 1.2 -->
      <g style="fill: #262626" transform="translate(111.534439 183.359375) scale(0.11 -0.11)">
       <defs>
        <path id="ArialMT-32" d="M 3222 541 
L 3222 0 
L 194 0 
Q 188 203 259 391 
Q 375 700 629 1000 
Q 884 1300 1366 1694 
Q 2113 2306 2375 2664 
Q 2638 3022 2638 3341 
Q 2638 3675 2398 3904 
Q 2159 4134 1775 4134 
Q 1369 4134 1125 3890 
Q 881 3647 878 3216 
L 300 3275 
Q 359 3922 746 4261 
Q 1134 4600 1788 4600 
Q 2447 4600 2831 4234 
Q 3216 3869 3216 3328 
Q 3216 3053 3103 2787 
Q 2991 2522 2730 2228 
Q 2469 1934 1863 1422 
Q 1356 997 1212 845 
Q 1069 694 975 541 
L 3222 541 
z
" transform="scale(0.015625)"/>
       </defs>
       <use xlink:href="#ArialMT-31"/>
       <use xlink:href="#ArialMT-2e" transform="translate(55.615234 0)"/>
       <use xlink:href="#ArialMT-32" transform="translate(83.398438 0)"/>
      </g>
     </g>
    </g>
    <g id="xtick_3">
     <g id="line2d_3">
      <g>
       <use xlink:href="#m77b8b3d231" x="163.283172" y="165.985781" style="fill: #262626; stroke: #262626; stroke-width: 1.25"/>
      </g>
     </g>
     <g id="text_3">
      <!-- 1.4 -->
      <g style="fill: #262626" transform="translate(155.638172 183.359375) scale(0.11 -0.11)">
       <defs>
        <path id="ArialMT-34" d="M 2069 0 
L 2069 1097 
L 81 1097 
L 81 1613 
L 2172 4581 
L 2631 4581 
L 2631 1613 
L 3250 1613 
L 3250 1097 
L 2631 1097 
L 2631 0 
L 2069 0 
z
M 2069 1613 
L 2069 3678 
L 634 1613 
L 2069 1613 
z
" transform="scale(0.015625)"/>
       </defs>
       <use xlink:href="#ArialMT-31"/>
       <use xlink:href="#ArialMT-2e" transform="translate(55.615234 0)"/>
       <use xlink:href="#ArialMT-34" transform="translate(83.398438 0)"/>
      </g>
     </g>
    </g>
    <g id="xtick_4">
     <g id="line2d_4">
      <g>
       <use xlink:href="#m77b8b3d231" x="207.386904" y="165.985781" style="fill: #262626; stroke: #262626; stroke-width: 1.25"/>
      </g>
     </g>
     <g id="text_4">
      <!-- 1.6 -->
      <g style="fill: #262626" transform="translate(199.741904 183.359375) scale(0.11 -0.11)">
       <defs>
        <path id="ArialMT-36" d="M 3184 3459 
L 2625 3416 
Q 2550 3747 2413 3897 
Q 2184 4138 1850 4138 
Q 1581 4138 1378 3988 
Q 1113 3794 959 3422 
Q 806 3050 800 2363 
Q 1003 2672 1297 2822 
Q 1591 2972 1913 2972 
Q 2475 2972 2870 2558 
Q 3266 2144 3266 1488 
Q 3266 1056 3080 686 
Q 2894 316 2569 119 
Q 2244 -78 1831 -78 
Q 1128 -78 684 439 
Q 241 956 241 2144 
Q 241 3472 731 4075 
Q 1159 4600 1884 4600 
Q 2425 4600 2770 4297 
Q 3116 3994 3184 3459 
z
M 888 1484 
Q 888 1194 1011 928 
Q 1134 663 1356 523 
Q 1578 384 1822 384 
Q 2178 384 2434 671 
Q 2691 959 2691 1453 
Q 2691 1928 2437 2201 
Q 2184 2475 1800 2475 
Q 1419 2475 1153 2201 
Q 888 1928 888 1484 
z
" transform="scale(0.015625)"/>
       </defs>
       <use xlink:href="#ArialMT-31"/>
       <use xlink:href="#ArialMT-2e" transform="translate(55.615234 0)"/>
       <use xlink:href="#ArialMT-36" transform="translate(83.398438 0)"/>
      </g>
     </g>
    </g>
    <g id="text_5">
     <!-- Multiplicative scatter -->
     <g style="fill: #262626" transform="translate(87.216305 198.135) scale(0.12 -0.12)">
      <defs>
       <path id="ArialMT-4d" d="M 475 0 
L 475 4581 
L 1388 4581 
L 2472 1338 
Q 2622 884 2691 659 
Q 2769 909 2934 1394 
L 4031 4581 
L 4847 4581 
L 4847 0 
L 4263 0 
L 4263 3834 
L 2931 0 
L 2384 0 
L 1059 3900 
L 1059 0 
L 475 0 
z
" transform="scale(0.015625)"/>
       <path id="ArialMT-75" d="M 2597 0 
L 2597 488 
Q 2209 -75 1544 -75 
Q 1250 -75 995 37 
Q 741 150 617 320 
Q 494 491 444 738 
Q 409 903 409 1263 
L 409 3319 
L 972 3319 
L 972 1478 
Q 972 1038 1006 884 
Q 1059 663 1231 536 
Q 1403 409 1656 409 
Q 1909 409 2131 539 
Q 2353 669 2445 892 
Q 2538 1116 2538 1541 
L 2538 3319 
L 3100 3319 
L 3100 0 
L 2597 0 
z
" transform="scale(0.015625)"/>
       <path id="ArialMT-6c" d="M 409 0 
L 409 4581 
L 972 4581 
L 972 0 
L 409 0 
z
" transform="scale(0.015625)"/>
       <path id="ArialMT-74" d="M 1650 503 
L 1731 6 
Q 1494 -44 1306 -44 
Q 1000 -44 831 53 
Q 663 150 594 308 
Q 525 466 525 972 
L 525 2881 
L 113 2881 
L 113 3319 
L 525 3319 
L 525 4141 
L 1084 4478 
L 1084 3319 
L 1650 3319 
L 1650 2881 
L 1084 2881 
L 1084 941 
Q 1084 700 1114 631 
Q 1144 563 1211 522 
Q 1278 481 1403 481 
Q 1497 481 1650 503 
z
" transform="scale(0.015625)"/>
       <path id="ArialMT-69" d="M 425 3934 
L 425 4581 
L 988 4581 
L 988 3934 
L 425 3934 
z
M 425 0 
L 425 3319 
L 988 3319 
L 988 0 
L 425 0 
z
" transform="scale(0.015625)"/>
       <path id="ArialMT-70" d="M 422 -1272 
L 422 3319 
L 934 3319 
L 934 2888 
Q 1116 3141 1344 3267 
Q 1572 3394 1897 3394 
Q 2322 3394 2647 3175 
Q 2972 2956 3137 2557 
Q 3303 2159 3303 1684 
Q 3303 1175 3120 767 
Q 2938 359 2589 142 
Q 2241 -75 1856 -75 
Q 1575 -75 1351 44 
Q 1128 163 984 344 
L 984 -1272 
L 422 -1272 
z
M 931 1641 
Q 931 1000 1190 694 
Q 1450 388 1819 388 
Q 2194 388 2461 705 
Q 2728 1022 2728 1688 
Q 2728 2322 2467 2637 
Q 2206 2953 1844 2953 
Q 1484 2953 1207 2617 
Q 931 2281 931 1641 
z
" transform="scale(0.015625)"/>
       <path id="ArialMT-63" d="M 2588 1216 
L 3141 1144 
Q 3050 572 2676 248 
Q 2303 -75 1759 -75 
Q 1078 -75 664 370 
Q 250 816 250 1647 
Q 250 2184 428 2587 
Q 606 2991 970 3192 
Q 1334 3394 1763 3394 
Q 2303 3394 2647 3120 
Q 2991 2847 3088 2344 
L 2541 2259 
Q 2463 2594 2264 2762 
Q 2066 2931 1784 2931 
Q 1359 2931 1093 2626 
Q 828 2322 828 1663 
Q 828 994 1084 691 
Q 1341 388 1753 388 
Q 2084 388 2306 591 
Q 2528 794 2588 1216 
z
" transform="scale(0.015625)"/>
       <path id="ArialMT-61" d="M 2588 409 
Q 2275 144 1986 34 
Q 1697 -75 1366 -75 
Q 819 -75 525 192 
Q 231 459 231 875 
Q 231 1119 342 1320 
Q 453 1522 633 1644 
Q 813 1766 1038 1828 
Q 1203 1872 1538 1913 
Q 2219 1994 2541 2106 
Q 2544 2222 2544 2253 
Q 2544 2597 2384 2738 
Q 2169 2928 1744 2928 
Q 1347 2928 1158 2789 
Q 969 2650 878 2297 
L 328 2372 
Q 403 2725 575 2942 
Q 747 3159 1072 3276 
Q 1397 3394 1825 3394 
Q 2250 3394 2515 3294 
Q 2781 3194 2906 3042 
Q 3031 2891 3081 2659 
Q 3109 2516 3109 2141 
L 3109 1391 
Q 3109 606 3145 398 
Q 3181 191 3288 0 
L 2700 0 
Q 2613 175 2588 409 
z
M 2541 1666 
Q 2234 1541 1622 1453 
Q 1275 1403 1131 1340 
Q 988 1278 909 1158 
Q 831 1038 831 891 
Q 831 666 1001 516 
Q 1172 366 1500 366 
Q 1825 366 2078 508 
Q 2331 650 2450 897 
Q 2541 1088 2541 1459 
L 2541 1666 
z
" transform="scale(0.015625)"/>
       <path id="ArialMT-76" d="M 1344 0 
L 81 3319 
L 675 3319 
L 1388 1331 
Q 1503 1009 1600 663 
Q 1675 925 1809 1294 
L 2547 3319 
L 3125 3319 
L 1869 0 
L 1344 0 
z
" transform="scale(0.015625)"/>
       <path id="ArialMT-65" d="M 2694 1069 
L 3275 997 
Q 3138 488 2766 206 
Q 2394 -75 1816 -75 
Q 1088 -75 661 373 
Q 234 822 234 1631 
Q 234 2469 665 2931 
Q 1097 3394 1784 3394 
Q 2450 3394 2872 2941 
Q 3294 2488 3294 1666 
Q 3294 1616 3291 1516 
L 816 1516 
Q 847 969 1125 678 
Q 1403 388 1819 388 
Q 2128 388 2347 550 
Q 2566 713 2694 1069 
z
M 847 1978 
L 2700 1978 
Q 2663 2397 2488 2606 
Q 2219 2931 1791 2931 
Q 1403 2931 1139 2672 
Q 875 2413 847 1978 
z
" transform="scale(0.015625)"/>
       <path id="ArialMT-20" transform="scale(0.015625)"/>
       <path id="ArialMT-73" d="M 197 991 
L 753 1078 
Q 800 744 1014 566 
Q 1228 388 1613 388 
Q 2000 388 2187 545 
Q 2375 703 2375 916 
Q 2375 1106 2209 1216 
Q 2094 1291 1634 1406 
Q 1016 1563 777 1677 
Q 538 1791 414 1992 
Q 291 2194 291 2438 
Q 291 2659 392 2848 
Q 494 3038 669 3163 
Q 800 3259 1026 3326 
Q 1253 3394 1513 3394 
Q 1903 3394 2198 3281 
Q 2494 3169 2634 2976 
Q 2775 2784 2828 2463 
L 2278 2388 
Q 2241 2644 2061 2787 
Q 1881 2931 1553 2931 
Q 1166 2931 1000 2803 
Q 834 2675 834 2503 
Q 834 2394 903 2306 
Q 972 2216 1119 2156 
Q 1203 2125 1616 2013 
Q 2213 1853 2448 1751 
Q 2684 1650 2818 1456 
Q 2953 1263 2953 975 
Q 2953 694 2789 445 
Q 2625 197 2315 61 
Q 2006 -75 1616 -75 
Q 969 -75 630 194 
Q 291 463 197 991 
z
" transform="scale(0.015625)"/>
       <path id="ArialMT-72" d="M 416 0 
L 416 3319 
L 922 3319 
L 922 2816 
Q 1116 3169 1280 3281 
Q 1444 3394 1641 3394 
Q 1925 3394 2219 3213 
L 2025 2691 
Q 1819 2813 1613 2813 
Q 1428 2813 1281 2702 
Q 1134 2591 1072 2394 
Q 978 2094 978 1738 
L 978 0 
L 416 0 
z
" transform="scale(0.015625)"/>
      </defs>
      <use xlink:href="#ArialMT-4d"/>
      <use xlink:href="#ArialMT-75" transform="translate(83.300781 0)"/>
      <use xlink:href="#ArialMT-6c" transform="translate(138.916016 0)"/>
      <use xlink:href="#ArialMT-74" transform="translate(161.132812 0)"/>
      <use xlink:href="#ArialMT-69" transform="translate(188.916016 0)"/>
      <use xlink:href="#ArialMT-70" transform="translate(211.132812 0)"/>
      <use xlink:href="#ArialMT-6c" transform="translate(266.748047 0)"/>
      <use xlink:href="#ArialMT-69" transform="translate(288.964844 0)"/>
      <use xlink:href="#ArialMT-63" transform="translate(311.181641 0)"/>
      <use xlink:href="#ArialMT-61" transform="translate(361.181641 0)"/>
      <use xlink:href="#ArialMT-74" transform="translate(416.796875 0)"/>
      <use xlink:href="#ArialMT-69" transform="translate(444.580078 0)"/>
      <use xlink:href="#ArialMT-76" transform="translate(466.796875 0)"/>
      <use xlink:href="#ArialMT-65" transform="translate(516.796875 0)"/>
      <use xlink:href="#ArialMT-20" transform="translate(572.412109 0)"/>
      <use xlink:href="#ArialMT-73" transform="translate(600.195312 0)"/>
      <use xlink:href="#ArialMT-63" transform="translate(650.195312 0)"/>
      <use xlink:href="#ArialMT-61" transform="translate(700.195312 0)"/>
      <use xlink:href="#ArialMT-74" transform="translate(755.810547 0)"/>
      <use xlink:href="#ArialMT-74" transform="translate(783.59375 0)"/>
      <use xlink:href="#ArialMT-65" transform="translate(811.376953 0)"/>
      <use xlink:href="#ArialMT-72" transform="translate(866.992188 0)"/>
     </g>
    </g>
   </g>
   <g id="matplotlib.axis_2">
    <g id="ytick_1">
     <g id="line2d_5">
      <defs>
       <path id="m119b3b670a" d="M 0 0 
L -6 0 
" style="stroke: #262626; stroke-width: 1.25"/>
      </defs>
      <g>
       <use xlink:href="#m119b3b670a" x="75.075706" y="159.431399" style="fill: #262626; stroke: #262626; stroke-width: 1.25"/>
      </g>
     </g>
     <g id="text_6">
      <!-- 1 -->
      <g style="fill: #262626" transform="translate(59.458675 163.368196) scale(0.11 -0.11)">
       <use xlink:href="#ArialMT-31"/>
      </g>
     </g>
    </g>
    <g id="ytick_2">
     <g id="line2d_6">
      <g>
       <use xlink:href="#m119b3b670a" x="75.075706" y="93.887578" style="fill: #262626; stroke: #262626; stroke-width: 1.25"/>
      </g>
     </g>
     <g id="text_7">
      <!-- 2 -->
      <g style="fill: #262626" transform="translate(59.458675 97.824375) scale(0.11 -0.11)">
       <use xlink:href="#ArialMT-32"/>
      </g>
     </g>
    </g>
    <g id="ytick_3">
     <g id="line2d_7">
      <g>
       <use xlink:href="#m119b3b670a" x="75.075706" y="28.343757" style="fill: #262626; stroke: #262626; stroke-width: 1.25"/>
      </g>
     </g>
     <g id="text_8">
      <!-- 3 -->
      <g style="fill: #262626" transform="translate(59.458675 32.280554) scale(0.11 -0.11)">
       <defs>
        <path id="ArialMT-33" d="M 269 1209 
L 831 1284 
Q 928 806 1161 595 
Q 1394 384 1728 384 
Q 2125 384 2398 659 
Q 2672 934 2672 1341 
Q 2672 1728 2419 1979 
Q 2166 2231 1775 2231 
Q 1616 2231 1378 2169 
L 1441 2663 
Q 1497 2656 1531 2656 
Q 1891 2656 2178 2843 
Q 2466 3031 2466 3422 
Q 2466 3731 2256 3934 
Q 2047 4138 1716 4138 
Q 1388 4138 1169 3931 
Q 950 3725 888 3313 
L 325 3413 
Q 428 3978 793 4289 
Q 1159 4600 1703 4600 
Q 2078 4600 2393 4439 
Q 2709 4278 2876 4000 
Q 3044 3722 3044 3409 
Q 3044 3113 2884 2869 
Q 2725 2625 2413 2481 
Q 2819 2388 3044 2092 
Q 3269 1797 3269 1353 
Q 3269 753 2831 336 
Q 2394 -81 1725 -81 
Q 1122 -81 723 278 
Q 325 638 269 1209 
z
" transform="scale(0.015625)"/>
       </defs>
       <use xlink:href="#ArialMT-33"/>
      </g>
     </g>
    </g>
    <g id="text_9">
     <!-- Experimental replicate -->
     <g style="fill: #262626" transform="translate(53.073675 153.245391) rotate(-90) scale(0.12 -0.12)">
      <defs>
       <path id="ArialMT-45" d="M 506 0 
L 506 4581 
L 3819 4581 
L 3819 4041 
L 1113 4041 
L 1113 2638 
L 3647 2638 
L 3647 2100 
L 1113 2100 
L 1113 541 
L 3925 541 
L 3925 0 
L 506 0 
z
" transform="scale(0.015625)"/>
       <path id="ArialMT-78" d="M 47 0 
L 1259 1725 
L 138 3319 
L 841 3319 
L 1350 2541 
Q 1494 2319 1581 2169 
Q 1719 2375 1834 2534 
L 2394 3319 
L 3066 3319 
L 1919 1756 
L 3153 0 
L 2463 0 
L 1781 1031 
L 1600 1309 
L 728 0 
L 47 0 
z
" transform="scale(0.015625)"/>
       <path id="ArialMT-6d" d="M 422 0 
L 422 3319 
L 925 3319 
L 925 2853 
Q 1081 3097 1340 3245 
Q 1600 3394 1931 3394 
Q 2300 3394 2536 3241 
Q 2772 3088 2869 2813 
Q 3263 3394 3894 3394 
Q 4388 3394 4653 3120 
Q 4919 2847 4919 2278 
L 4919 0 
L 4359 0 
L 4359 2091 
Q 4359 2428 4304 2576 
Q 4250 2725 4106 2815 
Q 3963 2906 3769 2906 
Q 3419 2906 3187 2673 
Q 2956 2441 2956 1928 
L 2956 0 
L 2394 0 
L 2394 2156 
Q 2394 2531 2256 2718 
Q 2119 2906 1806 2906 
Q 1569 2906 1367 2781 
Q 1166 2656 1075 2415 
Q 984 2175 984 1722 
L 984 0 
L 422 0 
z
" transform="scale(0.015625)"/>
       <path id="ArialMT-6e" d="M 422 0 
L 422 3319 
L 928 3319 
L 928 2847 
Q 1294 3394 1984 3394 
Q 2284 3394 2536 3286 
Q 2788 3178 2913 3003 
Q 3038 2828 3088 2588 
Q 3119 2431 3119 2041 
L 3119 0 
L 2556 0 
L 2556 2019 
Q 2556 2363 2490 2533 
Q 2425 2703 2258 2804 
Q 2091 2906 1866 2906 
Q 1506 2906 1245 2678 
Q 984 2450 984 1813 
L 984 0 
L 422 0 
z
" transform="scale(0.015625)"/>
      </defs>
      <use xlink:href="#ArialMT-45"/>
      <use xlink:href="#ArialMT-78" transform="translate(66.699219 0)"/>
      <use xlink:href="#ArialMT-70" transform="translate(116.699219 0)"/>
      <use xlink:href="#ArialMT-65" transform="translate(172.314453 0)"/>
      <use xlink:href="#ArialMT-72" transform="translate(227.929688 0)"/>
      <use xlink:href="#ArialMT-69" transform="translate(261.230469 0)"/>
      <use xlink:href="#ArialMT-6d" transform="translate(283.447266 0)"/>
      <use xlink:href="#ArialMT-65" transform="translate(366.748047 0)"/>
      <use xlink:href="#ArialMT-6e" transform="translate(422.363281 0)"/>
      <use xlink:href="#ArialMT-74" transform="translate(477.978516 0)"/>
      <use xlink:href="#ArialMT-61" transform="translate(505.761719 0)"/>
      <use xlink:href="#ArialMT-6c" transform="translate(561.376953 0)"/>
      <use xlink:href="#ArialMT-20" transform="translate(583.59375 0)"/>
      <use xlink:href="#ArialMT-72" transform="translate(611.376953 0)"/>
      <use xlink:href="#ArialMT-65" transform="translate(644.677734 0)"/>
      <use xlink:href="#ArialMT-70" transform="translate(700.292969 0)"/>
      <use xlink:href="#ArialMT-6c" transform="translate(755.908203 0)"/>
      <use xlink:href="#ArialMT-69" transform="translate(778.125 0)"/>
      <use xlink:href="#ArialMT-63" transform="translate(800.341797 0)"/>
      <use xlink:href="#ArialMT-61" transform="translate(850.341797 0)"/>
      <use xlink:href="#ArialMT-74" transform="translate(905.957031 0)"/>
      <use xlink:href="#ArialMT-65" transform="translate(933.740234 0)"/>
     </g>
    </g>
   </g>
   <g id="FillBetweenPolyCollection_1"/>
   <g id="FillBetweenPolyCollection_2"/>
   <g id="line2d_8">
    <path d="M 214.923239 159.431399 
L 105.497397 93.887578 
L 187.38202 28.343757 
" clip-path="url(#pf0f149273a)" style="fill: none; stroke: #000000; stroke-width: 1.5; stroke-linecap: round"/>
   </g>
   <g id="line2d_9">
    <path d="M 203.578302 159.431399 
L 133.656234 93.887578 
L 114.584477 28.343757 
" clip-path="url(#pf0f149273a)" style="fill: none; stroke-dasharray: 1.5,2.475; stroke-dashoffset: 0; stroke: #000000; stroke-width: 1.5"/>
   </g>
   <g id="patch_3">
    <path d="M 75.075706 165.985781 
L 75.075706 21.789375 
" style="fill: none; stroke: #262626; stroke-width: 1.25; stroke-linejoin: miter; stroke-linecap: square"/>
   </g>
   <g id="patch_4">
    <path d="M 75.075706 165.985781 
L 207.386904 165.985781 
" style="fill: none; stroke: #262626; stroke-width: 1.25; stroke-linejoin: miter; stroke-linecap: square"/>
   </g>
   <g id="text_10">
    <!-- Plant-to-plant means -->
    <g style="fill: #262626" transform="translate(85.872868 15.789375) scale(0.12 -0.12)">
     <defs>
      <path id="ArialMT-50" d="M 494 0 
L 494 4581 
L 2222 4581 
Q 2678 4581 2919 4538 
Q 3256 4481 3484 4323 
Q 3713 4166 3852 3881 
Q 3991 3597 3991 3256 
Q 3991 2672 3619 2267 
Q 3247 1863 2275 1863 
L 1100 1863 
L 1100 0 
L 494 0 
z
M 1100 2403 
L 2284 2403 
Q 2872 2403 3119 2622 
Q 3366 2841 3366 3238 
Q 3366 3525 3220 3729 
Q 3075 3934 2838 4000 
Q 2684 4041 2272 4041 
L 1100 4041 
L 1100 2403 
z
" transform="scale(0.015625)"/>
      <path id="ArialMT-2d" d="M 203 1375 
L 203 1941 
L 1931 1941 
L 1931 1375 
L 203 1375 
z
" transform="scale(0.015625)"/>
      <path id="ArialMT-6f" d="M 213 1659 
Q 213 2581 725 3025 
Q 1153 3394 1769 3394 
Q 2453 3394 2887 2945 
Q 3322 2497 3322 1706 
Q 3322 1066 3130 698 
Q 2938 331 2570 128 
Q 2203 -75 1769 -75 
Q 1072 -75 642 372 
Q 213 819 213 1659 
z
M 791 1659 
Q 791 1022 1069 705 
Q 1347 388 1769 388 
Q 2188 388 2466 706 
Q 2744 1025 2744 1678 
Q 2744 2294 2464 2611 
Q 2184 2928 1769 2928 
Q 1347 2928 1069 2612 
Q 791 2297 791 1659 
z
" transform="scale(0.015625)"/>
     </defs>
     <use xlink:href="#ArialMT-50"/>
     <use xlink:href="#ArialMT-6c" transform="translate(66.699219 0)"/>
     <use xlink:href="#ArialMT-61" transform="translate(88.916016 0)"/>
     <use xlink:href="#ArialMT-6e" transform="translate(144.53125 0)"/>
     <use xlink:href="#ArialMT-74" transform="translate(200.146484 0)"/>
     <use xlink:href="#ArialMT-2d" transform="translate(227.929688 0)"/>
     <use xlink:href="#ArialMT-74" transform="translate(261.230469 0)"/>
     <use xlink:href="#ArialMT-6f" transform="translate(289.013672 0)"/>
     <use xlink:href="#ArialMT-2d" transform="translate(344.628906 0)"/>
     <use xlink:href="#ArialMT-70" transform="translate(377.929688 0)"/>
     <use xlink:href="#ArialMT-6c" transform="translate(433.544922 0)"/>
     <use xlink:href="#ArialMT-61" transform="translate(455.761719 0)"/>
     <use xlink:href="#ArialMT-6e" transform="translate(511.376953 0)"/>
     <use xlink:href="#ArialMT-74" transform="translate(566.992188 0)"/>
     <use xlink:href="#ArialMT-20" transform="translate(594.775391 0)"/>
     <use xlink:href="#ArialMT-6d" transform="translate(622.558594 0)"/>
     <use xlink:href="#ArialMT-65" transform="translate(705.859375 0)"/>
     <use xlink:href="#ArialMT-61" transform="translate(761.474609 0)"/>
     <use xlink:href="#ArialMT-6e" transform="translate(817.089844 0)"/>
     <use xlink:href="#ArialMT-73" transform="translate(872.705078 0)"/>
    </g>
   </g>
  </g>
  <g id="axes_2">
   <g id="patch_5">
    <path d="M 270.341904 165.985781 
L 402.653102 165.985781 
L 402.653102 21.789375 
L 270.341904 21.789375 
z
" style="fill: #ffffff"/>
   </g>
   <g id="matplotlib.axis_3">
    <g id="xtick_5">
     <g id="line2d_10">
      <g>
       <use xlink:href="#m77b8b3d231" x="270.341904" y="165.985781" style="fill: #262626; stroke: #262626; stroke-width: 1.25"/>
      </g>
     </g>
     <g id="text_11">
      <!-- 1.0 -->
      <g style="fill: #262626" transform="translate(262.696904 183.359375) scale(0.11 -0.11)">
       <use xlink:href="#ArialMT-31"/>
       <use xlink:href="#ArialMT-2e" transform="translate(55.615234 0)"/>
       <use xlink:href="#ArialMT-30" transform="translate(83.398438 0)"/>
      </g>
     </g>
    </g>
    <g id="xtick_6">
     <g id="line2d_11">
      <g>
       <use xlink:href="#m77b8b3d231" x="314.445637" y="165.985781" style="fill: #262626; stroke: #262626; stroke-width: 1.25"/>
      </g>
     </g>
     <g id="text_12">
      <!-- 1.2 -->
      <g style="fill: #262626" transform="translate(306.800637 183.359375) scale(0.11 -0.11)">
       <use xlink:href="#ArialMT-31"/>
       <use xlink:href="#ArialMT-2e" transform="translate(55.615234 0)"/>
       <use xlink:href="#ArialMT-32" transform="translate(83.398438 0)"/>
      </g>
     </g>
    </g>
    <g id="xtick_7">
     <g id="line2d_12">
      <g>
       <use xlink:href="#m77b8b3d231" x="358.549369" y="165.985781" style="fill: #262626; stroke: #262626; stroke-width: 1.25"/>
      </g>
     </g>
     <g id="text_13">
      <!-- 1.4 -->
      <g style="fill: #262626" transform="translate(350.904369 183.359375) scale(0.11 -0.11)">
       <use xlink:href="#ArialMT-31"/>
       <use xlink:href="#ArialMT-2e" transform="translate(55.615234 0)"/>
       <use xlink:href="#ArialMT-34" transform="translate(83.398438 0)"/>
      </g>
     </g>
    </g>
    <g id="xtick_8">
     <g id="line2d_13">
      <g>
       <use xlink:href="#m77b8b3d231" x="402.653102" y="165.985781" style="fill: #262626; stroke: #262626; stroke-width: 1.25"/>
      </g>
     </g>
     <g id="text_14">
      <!-- 1.6 -->
      <g style="fill: #262626" transform="translate(395.008102 183.359375) scale(0.11 -0.11)">
       <use xlink:href="#ArialMT-31"/>
       <use xlink:href="#ArialMT-2e" transform="translate(55.615234 0)"/>
       <use xlink:href="#ArialMT-36" transform="translate(83.398438 0)"/>
      </g>
     </g>
    </g>
    <g id="text_15">
     <!-- Multiplicative scatter -->
     <g style="fill: #262626" transform="translate(282.482503 198.135) scale(0.12 -0.12)">
      <use xlink:href="#ArialMT-4d"/>
      <use xlink:href="#ArialMT-75" transform="translate(83.300781 0)"/>
      <use xlink:href="#ArialMT-6c" transform="translate(138.916016 0)"/>
      <use xlink:href="#ArialMT-74" transform="translate(161.132812 0)"/>
      <use xlink:href="#ArialMT-69" transform="translate(188.916016 0)"/>
      <use xlink:href="#ArialMT-70" transform="translate(211.132812 0)"/>
      <use xlink:href="#ArialMT-6c" transform="translate(266.748047 0)"/>
      <use xlink:href="#ArialMT-69" transform="translate(288.964844 0)"/>
      <use xlink:href="#ArialMT-63" transform="translate(311.181641 0)"/>
      <use xlink:href="#ArialMT-61" transform="translate(361.181641 0)"/>
      <use xlink:href="#ArialMT-74" transform="translate(416.796875 0)"/>
      <use xlink:href="#ArialMT-69" transform="translate(444.580078 0)"/>
      <use xlink:href="#ArialMT-76" transform="translate(466.796875 0)"/>
      <use xlink:href="#ArialMT-65" transform="translate(516.796875 0)"/>
      <use xlink:href="#ArialMT-20" transform="translate(572.412109 0)"/>
      <use xlink:href="#ArialMT-73" transform="translate(600.195312 0)"/>
      <use xlink:href="#ArialMT-63" transform="translate(650.195312 0)"/>
      <use xlink:href="#ArialMT-61" transform="translate(700.195312 0)"/>
      <use xlink:href="#ArialMT-74" transform="translate(755.810547 0)"/>
      <use xlink:href="#ArialMT-74" transform="translate(783.59375 0)"/>
      <use xlink:href="#ArialMT-65" transform="translate(811.376953 0)"/>
      <use xlink:href="#ArialMT-72" transform="translate(866.992188 0)"/>
     </g>
    </g>
   </g>
   <g id="matplotlib.axis_4">
    <g id="ytick_4">
     <g id="line2d_14">
      <g>
       <use xlink:href="#m119b3b670a" x="270.341904" y="159.431399" style="fill: #262626; stroke: #262626; stroke-width: 1.25"/>
      </g>
     </g>
     <g id="text_16">
      <!-- 1 -->
      <g style="fill: #262626" transform="translate(254.724873 163.368196) scale(0.11 -0.11)">
       <use xlink:href="#ArialMT-31"/>
      </g>
     </g>
    </g>
    <g id="ytick_5">
     <g id="line2d_15">
      <g>
       <use xlink:href="#m119b3b670a" x="270.341904" y="93.887578" style="fill: #262626; stroke: #262626; stroke-width: 1.25"/>
      </g>
     </g>
     <g id="text_17">
      <!-- 2 -->
      <g style="fill: #262626" transform="translate(254.724873 97.824375) scale(0.11 -0.11)">
       <use xlink:href="#ArialMT-32"/>
      </g>
     </g>
    </g>
    <g id="ytick_6">
     <g id="line2d_16">
      <g>
       <use xlink:href="#m119b3b670a" x="270.341904" y="28.343757" style="fill: #262626; stroke: #262626; stroke-width: 1.25"/>
      </g>
     </g>
     <g id="text_18">
      <!-- 3 -->
      <g style="fill: #262626" transform="translate(254.724873 32.280554) scale(0.11 -0.11)">
       <use xlink:href="#ArialMT-33"/>
      </g>
     </g>
    </g>
    <g id="text_19">
     <!-- Experimental replicate -->
     <g style="fill: #262626" transform="translate(248.339873 153.245391) rotate(-90) scale(0.12 -0.12)">
      <use xlink:href="#ArialMT-45"/>
      <use xlink:href="#ArialMT-78" transform="translate(66.699219 0)"/>
      <use xlink:href="#ArialMT-70" transform="translate(116.699219 0)"/>
      <use xlink:href="#ArialMT-65" transform="translate(172.314453 0)"/>
      <use xlink:href="#ArialMT-72" transform="translate(227.929688 0)"/>
      <use xlink:href="#ArialMT-69" transform="translate(261.230469 0)"/>
      <use xlink:href="#ArialMT-6d" transform="translate(283.447266 0)"/>
      <use xlink:href="#ArialMT-65" transform="translate(366.748047 0)"/>
      <use xlink:href="#ArialMT-6e" transform="translate(422.363281 0)"/>
      <use xlink:href="#ArialMT-74" transform="translate(477.978516 0)"/>
      <use xlink:href="#ArialMT-61" transform="translate(505.761719 0)"/>
      <use xlink:href="#ArialMT-6c" transform="translate(561.376953 0)"/>
      <use xlink:href="#ArialMT-20" transform="translate(583.59375 0)"/>
      <use xlink:href="#ArialMT-72" transform="translate(611.376953 0)"/>
      <use xlink:href="#ArialMT-65" transform="translate(644.677734 0)"/>
      <use xlink:href="#ArialMT-70" transform="translate(700.292969 0)"/>
      <use xlink:href="#ArialMT-6c" transform="translate(755.908203 0)"/>
      <use xlink:href="#ArialMT-69" transform="translate(778.125 0)"/>
      <use xlink:href="#ArialMT-63" transform="translate(800.341797 0)"/>
      <use xlink:href="#ArialMT-61" transform="translate(850.341797 0)"/>
      <use xlink:href="#ArialMT-74" transform="translate(905.957031 0)"/>
      <use xlink:href="#ArialMT-65" transform="translate(933.740234 0)"/>
     </g>
    </g>
   </g>
   <g id="FillBetweenPolyCollection_3"/>
   <g id="FillBetweenPolyCollection_4"/>
   <g id="line2d_17">
    <path d="M 402.053905 159.431399 
L 324.878952 93.887578 
L 325.207485 28.343757 
" clip-path="url(#p3f159e5eb0)" style="fill: none; stroke: #000000; stroke-width: 1.5; stroke-linecap: round"/>
   </g>
   <g id="line2d_18">
    <path d="M 352.148736 159.431399 
L 320.979569 93.887578 
L 392.901755 28.343757 
" clip-path="url(#p3f159e5eb0)" style="fill: none; stroke-dasharray: 1.5,2.475; stroke-dashoffset: 0; stroke: #000000; stroke-width: 1.5"/>
   </g>
   <g id="patch_6">
    <path d="M 270.341904 165.985781 
L 270.341904 21.789375 
" style="fill: none; stroke: #262626; stroke-width: 1.25; stroke-linejoin: miter; stroke-linecap: square"/>
   </g>
   <g id="patch_7">
    <path d="M 270.341904 165.985781 
L 402.653102 165.985781 
" style="fill: none; stroke: #262626; stroke-width: 1.25; stroke-linejoin: miter; stroke-linecap: square"/>
   </g>
   <g id="text_20">
    <!-- Residual -->
    <g style="fill: #262626" transform="translate(313.151878 15.789375) scale(0.12 -0.12)">
     <defs>
      <path id="ArialMT-52" d="M 503 0 
L 503 4581 
L 2534 4581 
Q 3147 4581 3465 4457 
Q 3784 4334 3975 4021 
Q 4166 3709 4166 3331 
Q 4166 2844 3850 2509 
Q 3534 2175 2875 2084 
Q 3116 1969 3241 1856 
Q 3506 1613 3744 1247 
L 4541 0 
L 3778 0 
L 3172 953 
Q 2906 1366 2734 1584 
Q 2563 1803 2427 1890 
Q 2291 1978 2150 2013 
Q 2047 2034 1813 2034 
L 1109 2034 
L 1109 0 
L 503 0 
z
M 1109 2559 
L 2413 2559 
Q 2828 2559 3062 2645 
Q 3297 2731 3419 2920 
Q 3541 3109 3541 3331 
Q 3541 3656 3305 3865 
Q 3069 4075 2559 4075 
L 1109 4075 
L 1109 2559 
z
" transform="scale(0.015625)"/>
      <path id="ArialMT-64" d="M 2575 0 
L 2575 419 
Q 2259 -75 1647 -75 
Q 1250 -75 917 144 
Q 584 363 401 755 
Q 219 1147 219 1656 
Q 219 2153 384 2558 
Q 550 2963 881 3178 
Q 1213 3394 1622 3394 
Q 1922 3394 2156 3267 
Q 2391 3141 2538 2938 
L 2538 4581 
L 3097 4581 
L 3097 0 
L 2575 0 
z
M 797 1656 
Q 797 1019 1065 703 
Q 1334 388 1700 388 
Q 2069 388 2326 689 
Q 2584 991 2584 1609 
Q 2584 2291 2321 2609 
Q 2059 2928 1675 2928 
Q 1300 2928 1048 2622 
Q 797 2316 797 1656 
z
" transform="scale(0.015625)"/>
     </defs>
     <use xlink:href="#ArialMT-52"/>
     <use xlink:href="#ArialMT-65" transform="translate(72.216797 0)"/>
     <use xlink:href="#ArialMT-73" transform="translate(127.832031 0)"/>
     <use xlink:href="#ArialMT-69" transform="translate(177.832031 0)"/>
     <use xlink:href="#ArialMT-64" transform="translate(200.048828 0)"/>
     <use xlink:href="#ArialMT-75" transform="translate(255.664062 0)"/>
     <use xlink:href="#ArialMT-61" transform="translate(311.279297 0)"/>
     <use xlink:href="#ArialMT-6c" transform="translate(366.894531 0)"/>
    </g>
   </g>
  </g>
  <g id="axes_3">
   <g id="patch_8">
    <path d="M 465.608102 165.985781 
L 597.9193 165.985781 
L 597.9193 21.789375 
L 465.608102 21.789375 
z
" style="fill: #ffffff"/>
   </g>
   <g id="matplotlib.axis_5">
    <g id="xtick_9">
     <g id="line2d_19">
      <g>
       <use xlink:href="#m77b8b3d231" x="498.685902" y="165.985781" style="fill: #262626; stroke: #262626; stroke-width: 1.25"/>
      </g>
     </g>
     <g id="text_21">
      <!-- co-infiltration -->
      <g style="fill: #262626" transform="translate(467.508636 183.359375) scale(0.11 -0.11)">
       <defs>
        <path id="ArialMT-66" d="M 556 0 
L 556 2881 
L 59 2881 
L 59 3319 
L 556 3319 
L 556 3672 
Q 556 4006 616 4169 
Q 697 4388 901 4523 
Q 1106 4659 1475 4659 
Q 1713 4659 2000 4603 
L 1916 4113 
Q 1741 4144 1584 4144 
Q 1328 4144 1222 4034 
Q 1116 3925 1116 3625 
L 1116 3319 
L 1763 3319 
L 1763 2881 
L 1116 2881 
L 1116 0 
L 556 0 
z
" transform="scale(0.015625)"/>
       </defs>
       <use xlink:href="#ArialMT-63"/>
       <use xlink:href="#ArialMT-6f" transform="translate(50 0)"/>
       <use xlink:href="#ArialMT-2d" transform="translate(105.615234 0)"/>
       <use xlink:href="#ArialMT-69" transform="translate(138.916016 0)"/>
       <use xlink:href="#ArialMT-6e" transform="translate(161.132812 0)"/>
       <use xlink:href="#ArialMT-66" transform="translate(216.748047 0)"/>
       <use xlink:href="#ArialMT-69" transform="translate(244.53125 0)"/>
       <use xlink:href="#ArialMT-6c" transform="translate(266.748047 0)"/>
       <use xlink:href="#ArialMT-74" transform="translate(288.964844 0)"/>
       <use xlink:href="#ArialMT-72" transform="translate(316.748047 0)"/>
       <use xlink:href="#ArialMT-61" transform="translate(350.048828 0)"/>
       <use xlink:href="#ArialMT-74" transform="translate(405.664062 0)"/>
       <use xlink:href="#ArialMT-69" transform="translate(433.447266 0)"/>
       <use xlink:href="#ArialMT-6f" transform="translate(455.664062 0)"/>
       <use xlink:href="#ArialMT-6e" transform="translate(511.279297 0)"/>
      </g>
     </g>
    </g>
    <g id="xtick_10">
     <g id="line2d_20">
      <g>
       <use xlink:href="#m77b8b3d231" x="564.841501" y="165.985781" style="fill: #262626; stroke: #262626; stroke-width: 1.25"/>
      </g>
     </g>
     <g id="text_22">
      <!-- T2A -->
      <g style="fill: #262626" transform="translate(554.755016 183.359375) scale(0.11 -0.11)">
       <defs>
        <path id="ArialMT-54" d="M 1659 0 
L 1659 4041 
L 150 4041 
L 150 4581 
L 3781 4581 
L 3781 4041 
L 2266 4041 
L 2266 0 
L 1659 0 
z
" transform="scale(0.015625)"/>
        <path id="ArialMT-41" d="M -9 0 
L 1750 4581 
L 2403 4581 
L 4278 0 
L 3588 0 
L 3053 1388 
L 1138 1388 
L 634 0 
L -9 0 
z
M 1313 1881 
L 2866 1881 
L 2388 3150 
Q 2169 3728 2063 4100 
Q 1975 3659 1816 3225 
L 1313 1881 
z
" transform="scale(0.015625)"/>
       </defs>
       <use xlink:href="#ArialMT-54"/>
       <use xlink:href="#ArialMT-32" transform="translate(61.083984 0)"/>
       <use xlink:href="#ArialMT-41" transform="translate(116.699219 0)"/>
      </g>
     </g>
    </g>
    <g id="text_23">
     <!-- Condition -->
     <g style="fill: #262626" transform="translate(506.414639 198.135) scale(0.12 -0.12)">
      <defs>
       <path id="ArialMT-43" d="M 3763 1606 
L 4369 1453 
Q 4178 706 3683 314 
Q 3188 -78 2472 -78 
Q 1731 -78 1267 223 
Q 803 525 561 1097 
Q 319 1669 319 2325 
Q 319 3041 592 3573 
Q 866 4106 1370 4382 
Q 1875 4659 2481 4659 
Q 3169 4659 3637 4309 
Q 4106 3959 4291 3325 
L 3694 3184 
Q 3534 3684 3231 3912 
Q 2928 4141 2469 4141 
Q 1941 4141 1586 3887 
Q 1231 3634 1087 3207 
Q 944 2781 944 2328 
Q 944 1744 1114 1308 
Q 1284 872 1643 656 
Q 2003 441 2422 441 
Q 2931 441 3284 734 
Q 3638 1028 3763 1606 
z
" transform="scale(0.015625)"/>
      </defs>
      <use xlink:href="#ArialMT-43"/>
      <use xlink:href="#ArialMT-6f" transform="translate(72.216797 0)"/>
      <use xlink:href="#ArialMT-6e" transform="translate(127.832031 0)"/>
      <use xlink:href="#ArialMT-64" transform="translate(183.447266 0)"/>
      <use xlink:href="#ArialMT-69" transform="translate(239.0625 0)"/>
      <use xlink:href="#ArialMT-74" transform="translate(261.279297 0)"/>
      <use xlink:href="#ArialMT-69" transform="translate(289.0625 0)"/>
      <use xlink:href="#ArialMT-6f" transform="translate(311.279297 0)"/>
      <use xlink:href="#ArialMT-6e" transform="translate(366.894531 0)"/>
     </g>
    </g>
   </g>
   <g id="matplotlib.axis_6">
    <g id="ytick_7">
     <g id="line2d_21">
      <g>
       <use xlink:href="#m119b3b670a" x="465.608102" y="165.985781" style="fill: #262626; stroke: #262626; stroke-width: 1.25"/>
      </g>
     </g>
     <g id="text_24">
      <!-- 0.0 -->
      <g style="fill: #262626" transform="translate(440.818102 169.922578) scale(0.11 -0.11)">
       <use xlink:href="#ArialMT-30"/>
       <use xlink:href="#ArialMT-2e" transform="translate(55.615234 0)"/>
       <use xlink:href="#ArialMT-30" transform="translate(83.398438 0)"/>
      </g>
     </g>
    </g>
    <g id="ytick_8">
     <g id="line2d_22">
      <g>
       <use xlink:href="#m119b3b670a" x="465.608102" y="129.93668" style="fill: #262626; stroke: #262626; stroke-width: 1.25"/>
      </g>
     </g>
     <g id="text_25">
      <!-- 0.1 -->
      <g style="fill: #262626" transform="translate(440.818102 133.873477) scale(0.11 -0.11)">
       <use xlink:href="#ArialMT-30"/>
       <use xlink:href="#ArialMT-2e" transform="translate(55.615234 0)"/>
       <use xlink:href="#ArialMT-31" transform="translate(83.398438 0)"/>
      </g>
     </g>
    </g>
    <g id="ytick_9">
     <g id="line2d_23">
      <g>
       <use xlink:href="#m119b3b670a" x="465.608102" y="93.887578" style="fill: #262626; stroke: #262626; stroke-width: 1.25"/>
      </g>
     </g>
     <g id="text_26">
      <!-- 0.2 -->
      <g style="fill: #262626" transform="translate(440.818102 97.824375) scale(0.11 -0.11)">
       <use xlink:href="#ArialMT-30"/>
       <use xlink:href="#ArialMT-2e" transform="translate(55.615234 0)"/>
       <use xlink:href="#ArialMT-32" transform="translate(83.398438 0)"/>
      </g>
     </g>
    </g>
    <g id="ytick_10">
     <g id="line2d_24">
      <g>
       <use xlink:href="#m119b3b670a" x="465.608102" y="57.838477" style="fill: #262626; stroke: #262626; stroke-width: 1.25"/>
      </g>
     </g>
     <g id="text_27">
      <!-- 0.3 -->
      <g style="fill: #262626" transform="translate(440.818102 61.775273) scale(0.11 -0.11)">
       <use xlink:href="#ArialMT-30"/>
       <use xlink:href="#ArialMT-2e" transform="translate(55.615234 0)"/>
       <use xlink:href="#ArialMT-33" transform="translate(83.398438 0)"/>
      </g>
     </g>
    </g>
    <g id="ytick_11">
     <g id="line2d_25">
      <g>
       <use xlink:href="#m119b3b670a" x="465.608102" y="21.789375" style="fill: #262626; stroke: #262626; stroke-width: 1.25"/>
      </g>
     </g>
     <g id="text_28">
      <!-- 0.4 -->
      <g style="fill: #262626" transform="translate(440.818102 25.726172) scale(0.11 -0.11)">
       <use xlink:href="#ArialMT-30"/>
       <use xlink:href="#ArialMT-2e" transform="translate(55.615234 0)"/>
       <use xlink:href="#ArialMT-34" transform="translate(83.398438 0)"/>
      </g>
     </g>
    </g>
    <g id="text_29">
     <!-- Abs$_{538}$/mg -->
     <g style="fill: #262626" transform="translate(434.178102 122.507578) rotate(-90) scale(0.12 -0.12)">
      <defs>
       <path id="ArialMT-62" d="M 941 0 
L 419 0 
L 419 4581 
L 981 4581 
L 981 2947 
Q 1338 3394 1891 3394 
Q 2197 3394 2470 3270 
Q 2744 3147 2920 2923 
Q 3097 2700 3197 2384 
Q 3297 2069 3297 1709 
Q 3297 856 2875 390 
Q 2453 -75 1863 -75 
Q 1275 -75 941 416 
L 941 0 
z
M 934 1684 
Q 934 1088 1097 822 
Q 1363 388 1816 388 
Q 2184 388 2453 708 
Q 2722 1028 2722 1663 
Q 2722 2313 2464 2622 
Q 2206 2931 1841 2931 
Q 1472 2931 1203 2611 
Q 934 2291 934 1684 
z
" transform="scale(0.015625)"/>
       <path id="DejaVuSans-35" d="M 691 4666 
L 3169 4666 
L 3169 4134 
L 1269 4134 
L 1269 2991 
Q 1406 3038 1543 3061 
Q 1681 3084 1819 3084 
Q 2600 3084 3056 2656 
Q 3513 2228 3513 1497 
Q 3513 744 3044 326 
Q 2575 -91 1722 -91 
Q 1428 -91 1123 -41 
Q 819 9 494 109 
L 494 744 
Q 775 591 1075 516 
Q 1375 441 1709 441 
Q 2250 441 2565 725 
Q 2881 1009 2881 1497 
Q 2881 1984 2565 2268 
Q 2250 2553 1709 2553 
Q 1456 2553 1204 2497 
Q 953 2441 691 2322 
L 691 4666 
z
" transform="scale(0.015625)"/>
       <path id="DejaVuSans-33" d="M 2597 2516 
Q 3050 2419 3304 2112 
Q 3559 1806 3559 1356 
Q 3559 666 3084 287 
Q 2609 -91 1734 -91 
Q 1441 -91 1130 -33 
Q 819 25 488 141 
L 488 750 
Q 750 597 1062 519 
Q 1375 441 1716 441 
Q 2309 441 2620 675 
Q 2931 909 2931 1356 
Q 2931 1769 2642 2001 
Q 2353 2234 1838 2234 
L 1294 2234 
L 1294 2753 
L 1863 2753 
Q 2328 2753 2575 2939 
Q 2822 3125 2822 3475 
Q 2822 3834 2567 4026 
Q 2313 4219 1838 4219 
Q 1578 4219 1281 4162 
Q 984 4106 628 3988 
L 628 4550 
Q 988 4650 1302 4700 
Q 1616 4750 1894 4750 
Q 2613 4750 3031 4423 
Q 3450 4097 3450 3541 
Q 3450 3153 3228 2886 
Q 3006 2619 2597 2516 
z
" transform="scale(0.015625)"/>
       <path id="DejaVuSans-38" d="M 2034 2216 
Q 1584 2216 1326 1975 
Q 1069 1734 1069 1313 
Q 1069 891 1326 650 
Q 1584 409 2034 409 
Q 2484 409 2743 651 
Q 3003 894 3003 1313 
Q 3003 1734 2745 1975 
Q 2488 2216 2034 2216 
z
M 1403 2484 
Q 997 2584 770 2862 
Q 544 3141 544 3541 
Q 544 4100 942 4425 
Q 1341 4750 2034 4750 
Q 2731 4750 3128 4425 
Q 3525 4100 3525 3541 
Q 3525 3141 3298 2862 
Q 3072 2584 2669 2484 
Q 3125 2378 3379 2068 
Q 3634 1759 3634 1313 
Q 3634 634 3220 271 
Q 2806 -91 2034 -91 
Q 1263 -91 848 271 
Q 434 634 434 1313 
Q 434 1759 690 2068 
Q 947 2378 1403 2484 
z
M 1172 3481 
Q 1172 3119 1398 2916 
Q 1625 2713 2034 2713 
Q 2441 2713 2670 2916 
Q 2900 3119 2900 3481 
Q 2900 3844 2670 4047 
Q 2441 4250 2034 4250 
Q 1625 4250 1398 4047 
Q 1172 3844 1172 3481 
z
" transform="scale(0.015625)"/>
       <path id="ArialMT-2f" d="M 0 -78 
L 1328 4659 
L 1778 4659 
L 453 -78 
L 0 -78 
z
" transform="scale(0.015625)"/>
       <path id="ArialMT-67" d="M 319 -275 
L 866 -356 
Q 900 -609 1056 -725 
Q 1266 -881 1628 -881 
Q 2019 -881 2231 -725 
Q 2444 -569 2519 -288 
Q 2563 -116 2559 434 
Q 2191 0 1641 0 
Q 956 0 581 494 
Q 206 988 206 1678 
Q 206 2153 378 2554 
Q 550 2956 876 3175 
Q 1203 3394 1644 3394 
Q 2231 3394 2613 2919 
L 2613 3319 
L 3131 3319 
L 3131 450 
Q 3131 -325 2973 -648 
Q 2816 -972 2473 -1159 
Q 2131 -1347 1631 -1347 
Q 1038 -1347 672 -1080 
Q 306 -813 319 -275 
z
M 784 1719 
Q 784 1066 1043 766 
Q 1303 466 1694 466 
Q 2081 466 2343 764 
Q 2606 1063 2606 1700 
Q 2606 2309 2336 2618 
Q 2066 2928 1684 2928 
Q 1309 2928 1046 2623 
Q 784 2319 784 1719 
z
" transform="scale(0.015625)"/>
      </defs>
      <use xlink:href="#ArialMT-41" transform="translate(0 0.203125)"/>
      <use xlink:href="#ArialMT-62" transform="translate(66.699219 0.203125)"/>
      <use xlink:href="#ArialMT-73" transform="translate(122.314453 0.203125)"/>
      <use xlink:href="#DejaVuSans-35" transform="translate(173.271484 -16.203125) scale(0.7)"/>
      <use xlink:href="#DejaVuSans-33" transform="translate(217.807617 -16.203125) scale(0.7)"/>
      <use xlink:href="#DejaVuSans-38" transform="translate(262.34375 -16.203125) scale(0.7)"/>
      <use xlink:href="#ArialMT-2f" transform="translate(309.614258 0.203125)"/>
      <use xlink:href="#ArialMT-6d" transform="translate(337.397461 0.203125)"/>
      <use xlink:href="#ArialMT-67" transform="translate(420.698242 0.203125)"/>
     </g>
    </g>
   </g>
   <g id="patch_9">
    <path d="M 498.685902 165.985781 
L 498.685902 165.985781 
L 498.685902 165.985781 
L 498.685902 165.985781 
z
" clip-path="url(#p8934674e5e)" style="fill: #f1f1f1; stroke: #303030; stroke-linejoin: miter"/>
   </g>
   <g id="patch_10">
    <path d="M 498.685902 165.985781 
L 498.685902 165.985781 
L 498.685902 165.985781 
L 498.685902 165.985781 
z
" clip-path="url(#p8934674e5e)" style="fill: #a0a0a0; stroke: #303030; stroke-linejoin: miter"/>
   </g>
   <g id="patch_11">
    <path d="M 498.685902 165.985781 
L 498.685902 165.985781 
L 498.685902 165.985781 
L 498.685902 165.985781 
z
" clip-path="url(#p8934674e5e)" style="fill: #505050; stroke: #303030; stroke-linejoin: miter"/>
   </g>
   <g id="patch_12">
    <path d="M 472.223662 149.820315 
L 489.865155 149.820315 
L 489.865155 127.508935 
L 472.223662 127.508935 
L 472.223662 149.820315 
z
" clip-path="url(#p8934674e5e)" style="fill: #f1f1f1; stroke: #303030; stroke-linejoin: miter"/>
   </g>
   <g id="line2d_26">
    <path d="M 481.044409 149.820315 
L 481.044409 152.943804 
" clip-path="url(#p8934674e5e)" style="fill: none; stroke: #303030"/>
   </g>
   <g id="line2d_27">
    <path d="M 481.044409 127.508935 
L 481.044409 117.569028 
" clip-path="url(#p8934674e5e)" style="fill: none; stroke: #303030"/>
   </g>
   <g id="line2d_28">
    <path d="M 476.634035 152.943804 
L 485.454782 152.943804 
" clip-path="url(#p8934674e5e)" style="fill: none; stroke: #303030; stroke-linecap: round"/>
   </g>
   <g id="line2d_29">
    <path d="M 476.634035 117.569028 
L 485.454782 117.569028 
" clip-path="url(#p8934674e5e)" style="fill: none; stroke: #303030; stroke-linecap: round"/>
   </g>
   <g id="line2d_30"/>
   <g id="patch_13">
    <path d="M 538.379261 156.98049 
L 556.020754 156.98049 
L 556.020754 146.424677 
L 538.379261 146.424677 
L 538.379261 156.98049 
z
" clip-path="url(#p8934674e5e)" style="fill: #f1f1f1; stroke: #303030; stroke-linejoin: miter"/>
   </g>
   <g id="line2d_31">
    <path d="M 547.200007 156.98049 
L 547.200007 162.0596 
" clip-path="url(#p8934674e5e)" style="fill: none; stroke: #303030"/>
   </g>
   <g id="line2d_32">
    <path d="M 547.200007 146.424677 
L 547.200007 138.397439 
" clip-path="url(#p8934674e5e)" style="fill: none; stroke: #303030"/>
   </g>
   <g id="line2d_33">
    <path d="M 542.789634 162.0596 
L 551.610381 162.0596 
" clip-path="url(#p8934674e5e)" style="fill: none; stroke: #303030; stroke-linecap: round"/>
   </g>
   <g id="line2d_34">
    <path d="M 542.789634 138.397439 
L 551.610381 138.397439 
" clip-path="url(#p8934674e5e)" style="fill: none; stroke: #303030; stroke-linecap: round"/>
   </g>
   <g id="line2d_35"/>
   <g id="patch_14">
    <path d="M 489.865155 91.317006 
L 507.506648 91.317006 
L 507.506648 68.385207 
L 489.865155 68.385207 
L 489.865155 91.317006 
z
" clip-path="url(#p8934674e5e)" style="fill: #a0a0a0; stroke: #303030; stroke-linejoin: miter"/>
   </g>
   <g id="line2d_36">
    <path d="M 498.685902 91.317006 
L 498.685902 109.628406 
" clip-path="url(#p8934674e5e)" style="fill: none; stroke: #303030"/>
   </g>
   <g id="line2d_37">
    <path d="M 498.685902 68.385207 
L 498.685902 39.530932 
" clip-path="url(#p8934674e5e)" style="fill: none; stroke: #303030"/>
   </g>
   <g id="line2d_38">
    <path d="M 494.275528 109.628406 
L 503.096275 109.628406 
" clip-path="url(#p8934674e5e)" style="fill: none; stroke: #303030; stroke-linecap: round"/>
   </g>
   <g id="line2d_39">
    <path d="M 494.275528 39.530932 
L 503.096275 39.530932 
" clip-path="url(#p8934674e5e)" style="fill: none; stroke: #303030; stroke-linecap: round"/>
   </g>
   <g id="line2d_40"/>
   <g id="patch_15">
    <path d="M 556.020754 109.386182 
L 573.662247 109.386182 
L 573.662247 85.836639 
L 556.020754 85.836639 
L 556.020754 109.386182 
z
" clip-path="url(#p8934674e5e)" style="fill: #a0a0a0; stroke: #303030; stroke-linejoin: miter"/>
   </g>
   <g id="line2d_41">
    <path d="M 564.841501 109.386182 
L 564.841501 126.971164 
" clip-path="url(#p8934674e5e)" style="fill: none; stroke: #303030"/>
   </g>
   <g id="line2d_42">
    <path d="M 564.841501 85.836639 
L 564.841501 74.211457 
" clip-path="url(#p8934674e5e)" style="fill: none; stroke: #303030"/>
   </g>
   <g id="line2d_43">
    <path d="M 560.431127 126.971164 
L 569.251874 126.971164 
" clip-path="url(#p8934674e5e)" style="fill: none; stroke: #303030; stroke-linecap: round"/>
   </g>
   <g id="line2d_44">
    <path d="M 560.431127 74.211457 
L 569.251874 74.211457 
" clip-path="url(#p8934674e5e)" style="fill: none; stroke: #303030; stroke-linecap: round"/>
   </g>
   <g id="line2d_45"/>
   <g id="patch_16">
    <path d="M 507.506648 138.726433 
L 525.148141 138.726433 
L 525.148141 111.698883 
L 507.506648 111.698883 
L 507.506648 138.726433 
z
" clip-path="url(#p8934674e5e)" style="fill: #505050; stroke: #303030; stroke-linejoin: miter"/>
   </g>
   <g id="line2d_46">
    <path d="M 516.327395 138.726433 
L 516.327395 143.75415 
" clip-path="url(#p8934674e5e)" style="fill: none; stroke: #303030"/>
   </g>
   <g id="line2d_47">
    <path d="M 516.327395 111.698883 
L 516.327395 71.218002 
" clip-path="url(#p8934674e5e)" style="fill: none; stroke: #303030"/>
   </g>
   <g id="line2d_48">
    <path d="M 511.917021 143.75415 
L 520.737768 143.75415 
" clip-path="url(#p8934674e5e)" style="fill: none; stroke: #303030; stroke-linecap: round"/>
   </g>
   <g id="line2d_49">
    <path d="M 511.917021 71.218002 
L 520.737768 71.218002 
" clip-path="url(#p8934674e5e)" style="fill: none; stroke: #303030; stroke-linecap: round"/>
   </g>
   <g id="line2d_50"/>
   <g id="patch_17">
    <path d="M 573.662247 143.613943 
L 591.30374 143.613943 
L 591.30374 131.710805 
L 573.662247 131.710805 
L 573.662247 143.613943 
z
" clip-path="url(#p8934674e5e)" style="fill: #505050; stroke: #303030; stroke-linejoin: miter"/>
   </g>
   <g id="line2d_51">
    <path d="M 582.482994 143.613943 
L 582.482994 155.194159 
" clip-path="url(#p8934674e5e)" style="fill: none; stroke: #303030"/>
   </g>
   <g id="line2d_52">
    <path d="M 582.482994 131.710805 
L 582.482994 124.229614 
" clip-path="url(#p8934674e5e)" style="fill: none; stroke: #303030"/>
   </g>
   <g id="line2d_53">
    <path d="M 578.07262 155.194159 
L 586.893367 155.194159 
" clip-path="url(#p8934674e5e)" style="fill: none; stroke: #303030; stroke-linecap: round"/>
   </g>
   <g id="line2d_54">
    <path d="M 578.07262 124.229614 
L 586.893367 124.229614 
" clip-path="url(#p8934674e5e)" style="fill: none; stroke: #303030; stroke-linecap: round"/>
   </g>
   <g id="line2d_55"/>
   <g id="line2d_56">
    <path d="M 472.223662 137.297459 
L 489.865155 137.297459 
" clip-path="url(#p8934674e5e)" style="fill: none; stroke: #303030"/>
   </g>
   <g id="line2d_57">
    <path d="M 538.379261 151.400555 
L 556.020754 151.400555 
" clip-path="url(#p8934674e5e)" style="fill: none; stroke: #303030"/>
   </g>
   <g id="line2d_58">
    <path d="M 489.865155 78.627141 
L 507.506648 78.627141 
" clip-path="url(#p8934674e5e)" style="fill: none; stroke: #303030"/>
   </g>
   <g id="line2d_59">
    <path d="M 556.020754 105.588254 
L 573.662247 105.588254 
" clip-path="url(#p8934674e5e)" style="fill: none; stroke: #303030"/>
   </g>
   <g id="line2d_60">
    <path d="M 507.506648 127.913214 
L 525.148141 127.913214 
" clip-path="url(#p8934674e5e)" style="fill: none; stroke: #303030"/>
   </g>
   <g id="line2d_61">
    <path d="M 573.662247 133.204439 
L 591.30374 133.204439 
" clip-path="url(#p8934674e5e)" style="fill: none; stroke: #303030"/>
   </g>
   <g id="patch_18">
    <path d="M 465.608102 165.985781 
L 465.608102 21.789375 
" style="fill: none; stroke: #262626; stroke-width: 1.25; stroke-linejoin: miter; stroke-linecap: square"/>
   </g>
   <g id="patch_19">
    <path d="M 465.608102 165.985781 
L 597.9193 165.985781 
" style="fill: none; stroke: #262626; stroke-width: 1.25; stroke-linejoin: miter; stroke-linecap: square"/>
   </g>
   <g id="text_30">
    <!-- a -->
    <g style="fill: #262626" transform="translate(476.931234 110.359207) scale(0.14 -0.14)">
     <use xlink:href="#ArialMT-61"/>
    </g>
   </g>
   <g id="text_31">
    <!-- b -->
    <g style="fill: #262626" transform="translate(494.793245 32.321111) scale(0.14 -0.14)">
     <use xlink:href="#ArialMT-62"/>
    </g>
   </g>
   <g id="text_32">
    <!-- a -->
    <g style="fill: #262626" transform="translate(512.655257 64.008182) scale(0.14 -0.14)">
     <use xlink:href="#ArialMT-61"/>
    </g>
   </g>
   <g id="text_33">
    <!-- a -->
    <g style="fill: #262626" transform="translate(543.086833 131.187619) scale(0.14 -0.14)">
     <use xlink:href="#ArialMT-61"/>
    </g>
   </g>
   <g id="text_34">
    <!-- b -->
    <g style="fill: #262626" transform="translate(560.948844 67.001636) scale(0.14 -0.14)">
     <use xlink:href="#ArialMT-62"/>
    </g>
   </g>
   <g id="text_35">
    <!-- a -->
    <g style="fill: #262626" transform="translate(578.810856 117.019793) scale(0.14 -0.14)">
     <use xlink:href="#ArialMT-61"/>
    </g>
   </g>
   <g id="legend_1">
    <g id="patch_20">
     <path d="M 605.6193 129.792383 
L 660.0443 129.792383 
Q 662.2443 129.792383 662.2443 127.592383 
L 662.2443 65.538477 
Q 662.2443 63.338477 660.0443 63.338477 
L 605.6193 63.338477 
Q 603.4193 63.338477 603.4193 65.538477 
L 603.4193 127.592383 
Q 603.4193 129.792383 605.6193 129.792383 
z
" style="fill: #ffffff; opacity: 0.8; stroke: #cccccc; stroke-linejoin: miter"/>
    </g>
    <g id="text_36">
     <!-- Replicate -->
     <g style="fill: #262626" transform="translate(607.8193 76.327852) scale(0.12 -0.12)">
      <use xlink:href="#ArialMT-52"/>
      <use xlink:href="#ArialMT-65" transform="translate(72.216797 0)"/>
      <use xlink:href="#ArialMT-70" transform="translate(127.832031 0)"/>
      <use xlink:href="#ArialMT-6c" transform="translate(183.447266 0)"/>
      <use xlink:href="#ArialMT-69" transform="translate(205.664062 0)"/>
      <use xlink:href="#ArialMT-63" transform="translate(227.880859 0)"/>
      <use xlink:href="#ArialMT-61" transform="translate(277.880859 0)"/>
      <use xlink:href="#ArialMT-74" transform="translate(333.496094 0)"/>
      <use xlink:href="#ArialMT-65" transform="translate(361.279297 0)"/>
     </g>
    </g>
    <g id="patch_21">
     <path d="M 614.373284 92.086445 
L 636.373284 92.086445 
L 636.373284 84.386445 
L 614.373284 84.386445 
z
" style="fill: #f1f1f1; stroke: #303030; stroke-linejoin: miter"/>
    </g>
    <g id="text_37">
     <!-- 1 -->
     <g style="fill: #262626" transform="translate(645.173284 92.086445) scale(0.11 -0.11)">
      <use xlink:href="#ArialMT-31"/>
     </g>
    </g>
    <g id="patch_22">
     <path d="M 614.373284 107.646289 
L 636.373284 107.646289 
L 636.373284 99.946289 
L 614.373284 99.946289 
z
" style="fill: #a0a0a0; stroke: #303030; stroke-linejoin: miter"/>
    </g>
    <g id="text_38">
     <!-- 2 -->
     <g style="fill: #262626" transform="translate(645.173284 107.646289) scale(0.11 -0.11)">
      <use xlink:href="#ArialMT-32"/>
     </g>
    </g>
    <g id="patch_23">
     <path d="M 614.373284 123.206133 
L 636.373284 123.206133 
L 636.373284 115.506133 
L 614.373284 115.506133 
z
" style="fill: #505050; stroke: #303030; stroke-linejoin: miter"/>
    </g>
    <g id="text_39">
     <!-- 3 -->
     <g style="fill: #262626" transform="translate(645.173284 123.206133) scale(0.11 -0.11)">
      <use xlink:href="#ArialMT-33"/>
     </g>
    </g>
   </g>
  </g>
  <g id="axes_4"/>
  <g id="axes_5">
   <g id="patch_24">
    <path d="M 270.341904 374.425781 
L 402.653102 374.425781 
L 402.653102 230.229375 
L 270.341904 230.229375 
z
" style="fill: #ffffff"/>
   </g>
   <g id="matplotlib.axis_7">
    <g id="xtick_11">
     <g id="line2d_62">
      <g>
       <use xlink:href="#m77b8b3d231" x="270.341904" y="374.425781" style="fill: #262626; stroke: #262626; stroke-width: 1.25"/>
      </g>
     </g>
     <g id="text_40">
      <!-- 1.0 -->
      <g style="fill: #262626" transform="translate(262.696904 391.799375) scale(0.11 -0.11)">
       <use xlink:href="#ArialMT-31"/>
       <use xlink:href="#ArialMT-2e" transform="translate(55.615234 0)"/>
       <use xlink:href="#ArialMT-30" transform="translate(83.398438 0)"/>
      </g>
     </g>
    </g>
    <g id="xtick_12">
     <g id="line2d_63">
      <g>
       <use xlink:href="#m77b8b3d231" x="323.266383" y="374.425781" style="fill: #262626; stroke: #262626; stroke-width: 1.25"/>
      </g>
     </g>
     <g id="text_41">
      <!-- 1.2 -->
      <g style="fill: #262626" transform="translate(315.621383 391.799375) scale(0.11 -0.11)">
       <use xlink:href="#ArialMT-31"/>
       <use xlink:href="#ArialMT-2e" transform="translate(55.615234 0)"/>
       <use xlink:href="#ArialMT-32" transform="translate(83.398438 0)"/>
      </g>
     </g>
    </g>
    <g id="xtick_13">
     <g id="line2d_64">
      <g>
       <use xlink:href="#m77b8b3d231" x="376.190863" y="374.425781" style="fill: #262626; stroke: #262626; stroke-width: 1.25"/>
      </g>
     </g>
     <g id="text_42">
      <!-- 1.4 -->
      <g style="fill: #262626" transform="translate(368.545863 391.799375) scale(0.11 -0.11)">
       <use xlink:href="#ArialMT-31"/>
       <use xlink:href="#ArialMT-2e" transform="translate(55.615234 0)"/>
       <use xlink:href="#ArialMT-34" transform="translate(83.398438 0)"/>
      </g>
     </g>
    </g>
    <g id="text_43">
     <!-- Multiplicative scatter -->
     <g style="fill: #262626" transform="translate(282.482503 406.575) scale(0.12 -0.12)">
      <use xlink:href="#ArialMT-4d"/>
      <use xlink:href="#ArialMT-75" transform="translate(83.300781 0)"/>
      <use xlink:href="#ArialMT-6c" transform="translate(138.916016 0)"/>
      <use xlink:href="#ArialMT-74" transform="translate(161.132812 0)"/>
      <use xlink:href="#ArialMT-69" transform="translate(188.916016 0)"/>
      <use xlink:href="#ArialMT-70" transform="translate(211.132812 0)"/>
      <use xlink:href="#ArialMT-6c" transform="translate(266.748047 0)"/>
      <use xlink:href="#ArialMT-69" transform="translate(288.964844 0)"/>
      <use xlink:href="#ArialMT-63" transform="translate(311.181641 0)"/>
      <use xlink:href="#ArialMT-61" transform="translate(361.181641 0)"/>
      <use xlink:href="#ArialMT-74" transform="translate(416.796875 0)"/>
      <use xlink:href="#ArialMT-69" transform="translate(444.580078 0)"/>
      <use xlink:href="#ArialMT-76" transform="translate(466.796875 0)"/>
      <use xlink:href="#ArialMT-65" transform="translate(516.796875 0)"/>
      <use xlink:href="#ArialMT-20" transform="translate(572.412109 0)"/>
      <use xlink:href="#ArialMT-73" transform="translate(600.195312 0)"/>
      <use xlink:href="#ArialMT-63" transform="translate(650.195312 0)"/>
      <use xlink:href="#ArialMT-61" transform="translate(700.195312 0)"/>
      <use xlink:href="#ArialMT-74" transform="translate(755.810547 0)"/>
      <use xlink:href="#ArialMT-74" transform="translate(783.59375 0)"/>
      <use xlink:href="#ArialMT-65" transform="translate(811.376953 0)"/>
      <use xlink:href="#ArialMT-72" transform="translate(866.992188 0)"/>
     </g>
    </g>
   </g>
   <g id="matplotlib.axis_8">
    <g id="ytick_12">
     <g id="line2d_65">
      <g>
       <use xlink:href="#m119b3b670a" x="270.341904" y="367.871399" style="fill: #262626; stroke: #262626; stroke-width: 1.25"/>
      </g>
     </g>
     <g id="text_44">
      <!-- 1 -->
      <g style="fill: #262626" transform="translate(254.724873 371.808196) scale(0.11 -0.11)">
       <use xlink:href="#ArialMT-31"/>
      </g>
     </g>
    </g>
    <g id="ytick_13">
     <g id="line2d_66">
      <g>
       <use xlink:href="#m119b3b670a" x="270.341904" y="324.175518" style="fill: #262626; stroke: #262626; stroke-width: 1.25"/>
      </g>
     </g>
     <g id="text_45">
      <!-- 2 -->
      <g style="fill: #262626" transform="translate(254.724873 328.112315) scale(0.11 -0.11)">
       <use xlink:href="#ArialMT-32"/>
      </g>
     </g>
    </g>
    <g id="ytick_14">
     <g id="line2d_67">
      <g>
       <use xlink:href="#m119b3b670a" x="270.341904" y="280.479638" style="fill: #262626; stroke: #262626; stroke-width: 1.25"/>
      </g>
     </g>
     <g id="text_46">
      <!-- 3 -->
      <g style="fill: #262626" transform="translate(254.724873 284.416435) scale(0.11 -0.11)">
       <use xlink:href="#ArialMT-33"/>
      </g>
     </g>
    </g>
    <g id="ytick_15">
     <g id="line2d_68">
      <g>
       <use xlink:href="#m119b3b670a" x="270.341904" y="236.783757" style="fill: #262626; stroke: #262626; stroke-width: 1.25"/>
      </g>
     </g>
     <g id="text_47">
      <!-- 4 -->
      <g style="fill: #262626" transform="translate(254.724873 240.720554) scale(0.11 -0.11)">
       <use xlink:href="#ArialMT-34"/>
      </g>
     </g>
    </g>
    <g id="text_48">
     <!-- Experimental replicate -->
     <g style="fill: #262626" transform="translate(248.339873 361.685391) rotate(-90) scale(0.12 -0.12)">
      <use xlink:href="#ArialMT-45"/>
      <use xlink:href="#ArialMT-78" transform="translate(66.699219 0)"/>
      <use xlink:href="#ArialMT-70" transform="translate(116.699219 0)"/>
      <use xlink:href="#ArialMT-65" transform="translate(172.314453 0)"/>
      <use xlink:href="#ArialMT-72" transform="translate(227.929688 0)"/>
      <use xlink:href="#ArialMT-69" transform="translate(261.230469 0)"/>
      <use xlink:href="#ArialMT-6d" transform="translate(283.447266 0)"/>
      <use xlink:href="#ArialMT-65" transform="translate(366.748047 0)"/>
      <use xlink:href="#ArialMT-6e" transform="translate(422.363281 0)"/>
      <use xlink:href="#ArialMT-74" transform="translate(477.978516 0)"/>
      <use xlink:href="#ArialMT-61" transform="translate(505.761719 0)"/>
      <use xlink:href="#ArialMT-6c" transform="translate(561.376953 0)"/>
      <use xlink:href="#ArialMT-20" transform="translate(583.59375 0)"/>
      <use xlink:href="#ArialMT-72" transform="translate(611.376953 0)"/>
      <use xlink:href="#ArialMT-65" transform="translate(644.677734 0)"/>
      <use xlink:href="#ArialMT-70" transform="translate(700.292969 0)"/>
      <use xlink:href="#ArialMT-6c" transform="translate(755.908203 0)"/>
      <use xlink:href="#ArialMT-69" transform="translate(778.125 0)"/>
      <use xlink:href="#ArialMT-63" transform="translate(800.341797 0)"/>
      <use xlink:href="#ArialMT-61" transform="translate(850.341797 0)"/>
      <use xlink:href="#ArialMT-74" transform="translate(905.957031 0)"/>
      <use xlink:href="#ArialMT-65" transform="translate(933.740234 0)"/>
     </g>
    </g>
   </g>
   <g id="FillBetweenPolyCollection_5"/>
   <g id="line2d_69">
    <path d="M 289.386245 367.871399 
L 397.493892 324.175518 
L 301.656641 280.479638 
L 316.93537 236.783757 
" clip-path="url(#p1a96d23c62)" style="fill: none; stroke: #000000; stroke-width: 1.5; stroke-linecap: round"/>
   </g>
   <g id="patch_25">
    <path d="M 270.341904 374.425781 
L 270.341904 230.229375 
" style="fill: none; stroke: #262626; stroke-width: 1.25; stroke-linejoin: miter; stroke-linecap: square"/>
   </g>
   <g id="patch_26">
    <path d="M 270.341904 374.425781 
L 402.653102 374.425781 
" style="fill: none; stroke: #262626; stroke-width: 1.25; stroke-linejoin: miter; stroke-linecap: square"/>
   </g>
   <g id="text_49">
    <!-- Residual -->
    <g style="fill: #262626" transform="translate(313.151878 224.229375) scale(0.12 -0.12)">
     <use xlink:href="#ArialMT-52"/>
     <use xlink:href="#ArialMT-65" transform="translate(72.216797 0)"/>
     <use xlink:href="#ArialMT-73" transform="translate(127.832031 0)"/>
     <use xlink:href="#ArialMT-69" transform="translate(177.832031 0)"/>
     <use xlink:href="#ArialMT-64" transform="translate(200.048828 0)"/>
     <use xlink:href="#ArialMT-75" transform="translate(255.664062 0)"/>
     <use xlink:href="#ArialMT-61" transform="translate(311.279297 0)"/>
     <use xlink:href="#ArialMT-6c" transform="translate(366.894531 0)"/>
    </g>
   </g>
  </g>
  <g id="axes_6">
   <g id="patch_27">
    <path d="M 465.608102 374.425781 
L 597.9193 374.425781 
L 597.9193 230.229375 
L 465.608102 230.229375 
z
" style="fill: #ffffff"/>
   </g>
   <g id="matplotlib.axis_9">
    <g id="xtick_14">
     <g id="line2d_70">
      <g>
       <use xlink:href="#m77b8b3d231" x="482.147002" y="374.425781" style="fill: #262626; stroke: #262626; stroke-width: 1.25"/>
      </g>
     </g>
     <g id="text_50">
      <!-- 1 -->
      <g style="fill: #262626" transform="translate(479.088486 391.799375) scale(0.11 -0.11)">
       <use xlink:href="#ArialMT-31"/>
      </g>
     </g>
    </g>
    <g id="xtick_15">
     <g id="line2d_71">
      <g>
       <use xlink:href="#m77b8b3d231" x="515.224801" y="374.425781" style="fill: #262626; stroke: #262626; stroke-width: 1.25"/>
      </g>
     </g>
     <g id="text_51">
      <!-- 2 -->
      <g style="fill: #262626" transform="translate(512.166286 391.799375) scale(0.11 -0.11)">
       <use xlink:href="#ArialMT-32"/>
      </g>
     </g>
    </g>
    <g id="xtick_16">
     <g id="line2d_72">
      <g>
       <use xlink:href="#m77b8b3d231" x="548.302601" y="374.425781" style="fill: #262626; stroke: #262626; stroke-width: 1.25"/>
      </g>
     </g>
     <g id="text_52">
      <!-- 3 -->
      <g style="fill: #262626" transform="translate(545.244085 391.799375) scale(0.11 -0.11)">
       <use xlink:href="#ArialMT-33"/>
      </g>
     </g>
    </g>
    <g id="xtick_17">
     <g id="line2d_73">
      <g>
       <use xlink:href="#m77b8b3d231" x="581.3804" y="374.425781" style="fill: #262626; stroke: #262626; stroke-width: 1.25"/>
      </g>
     </g>
     <g id="text_53">
      <!-- 4 -->
      <g style="fill: #262626" transform="translate(578.321885 391.799375) scale(0.11 -0.11)">
       <use xlink:href="#ArialMT-34"/>
      </g>
     </g>
    </g>
    <g id="text_54">
     <!-- Experimental replicate -->
     <g style="fill: #262626" transform="translate(472.405889 406.575) scale(0.12 -0.12)">
      <use xlink:href="#ArialMT-45"/>
      <use xlink:href="#ArialMT-78" transform="translate(66.699219 0)"/>
      <use xlink:href="#ArialMT-70" transform="translate(116.699219 0)"/>
      <use xlink:href="#ArialMT-65" transform="translate(172.314453 0)"/>
      <use xlink:href="#ArialMT-72" transform="translate(227.929688 0)"/>
      <use xlink:href="#ArialMT-69" transform="translate(261.230469 0)"/>
      <use xlink:href="#ArialMT-6d" transform="translate(283.447266 0)"/>
      <use xlink:href="#ArialMT-65" transform="translate(366.748047 0)"/>
      <use xlink:href="#ArialMT-6e" transform="translate(422.363281 0)"/>
      <use xlink:href="#ArialMT-74" transform="translate(477.978516 0)"/>
      <use xlink:href="#ArialMT-61" transform="translate(505.761719 0)"/>
      <use xlink:href="#ArialMT-6c" transform="translate(561.376953 0)"/>
      <use xlink:href="#ArialMT-20" transform="translate(583.59375 0)"/>
      <use xlink:href="#ArialMT-72" transform="translate(611.376953 0)"/>
      <use xlink:href="#ArialMT-65" transform="translate(644.677734 0)"/>
      <use xlink:href="#ArialMT-70" transform="translate(700.292969 0)"/>
      <use xlink:href="#ArialMT-6c" transform="translate(755.908203 0)"/>
      <use xlink:href="#ArialMT-69" transform="translate(778.125 0)"/>
      <use xlink:href="#ArialMT-63" transform="translate(800.341797 0)"/>
      <use xlink:href="#ArialMT-61" transform="translate(850.341797 0)"/>
      <use xlink:href="#ArialMT-74" transform="translate(905.957031 0)"/>
      <use xlink:href="#ArialMT-65" transform="translate(933.740234 0)"/>
     </g>
    </g>
   </g>
   <g id="matplotlib.axis_10">
    <g id="ytick_16">
     <g id="line2d_74">
      <g>
       <use xlink:href="#m119b3b670a" x="465.608102" y="374.425781" style="fill: #262626; stroke: #262626; stroke-width: 1.25"/>
      </g>
     </g>
     <g id="text_55">
      <!-- 50 -->
      <g style="fill: #262626" transform="translate(443.87404 378.362578) scale(0.11 -0.11)">
       <defs>
        <path id="ArialMT-35" d="M 266 1200 
L 856 1250 
Q 922 819 1161 601 
Q 1400 384 1738 384 
Q 2144 384 2425 690 
Q 2706 997 2706 1503 
Q 2706 1984 2436 2262 
Q 2166 2541 1728 2541 
Q 1456 2541 1237 2417 
Q 1019 2294 894 2097 
L 366 2166 
L 809 4519 
L 3088 4519 
L 3088 3981 
L 1259 3981 
L 1013 2750 
Q 1425 3038 1878 3038 
Q 2478 3038 2890 2622 
Q 3303 2206 3303 1553 
Q 3303 931 2941 478 
Q 2500 -78 1738 -78 
Q 1113 -78 717 272 
Q 322 622 266 1200 
z
" transform="scale(0.015625)"/>
       </defs>
       <use xlink:href="#ArialMT-35"/>
       <use xlink:href="#ArialMT-30" transform="translate(55.615234 0)"/>
      </g>
     </g>
    </g>
    <g id="ytick_17">
     <g id="line2d_75">
      <g>
       <use xlink:href="#m119b3b670a" x="465.608102" y="350.393047" style="fill: #262626; stroke: #262626; stroke-width: 1.25"/>
      </g>
     </g>
     <g id="text_56">
      <!-- 60 -->
      <g style="fill: #262626" transform="translate(443.87404 354.329844) scale(0.11 -0.11)">
       <use xlink:href="#ArialMT-36"/>
       <use xlink:href="#ArialMT-30" transform="translate(55.615234 0)"/>
      </g>
     </g>
    </g>
    <g id="ytick_18">
     <g id="line2d_76">
      <g>
       <use xlink:href="#m119b3b670a" x="465.608102" y="326.360313" style="fill: #262626; stroke: #262626; stroke-width: 1.25"/>
      </g>
     </g>
     <g id="text_57">
      <!-- 70 -->
      <g style="fill: #262626" transform="translate(443.87404 330.297109) scale(0.11 -0.11)">
       <defs>
        <path id="ArialMT-37" d="M 303 3981 
L 303 4522 
L 3269 4522 
L 3269 4084 
Q 2831 3619 2401 2847 
Q 1972 2075 1738 1259 
Q 1569 684 1522 0 
L 944 0 
Q 953 541 1156 1306 
Q 1359 2072 1739 2783 
Q 2119 3494 2547 3981 
L 303 3981 
z
" transform="scale(0.015625)"/>
       </defs>
       <use xlink:href="#ArialMT-37"/>
       <use xlink:href="#ArialMT-30" transform="translate(55.615234 0)"/>
      </g>
     </g>
    </g>
    <g id="ytick_19">
     <g id="line2d_77">
      <g>
       <use xlink:href="#m119b3b670a" x="465.608102" y="302.327578" style="fill: #262626; stroke: #262626; stroke-width: 1.25"/>
      </g>
     </g>
     <g id="text_58">
      <!-- 80 -->
      <g style="fill: #262626" transform="translate(443.87404 306.264375) scale(0.11 -0.11)">
       <defs>
        <path id="ArialMT-38" d="M 1131 2484 
Q 781 2613 612 2850 
Q 444 3088 444 3419 
Q 444 3919 803 4259 
Q 1163 4600 1759 4600 
Q 2359 4600 2725 4251 
Q 3091 3903 3091 3403 
Q 3091 3084 2923 2848 
Q 2756 2613 2416 2484 
Q 2838 2347 3058 2040 
Q 3278 1734 3278 1309 
Q 3278 722 2862 322 
Q 2447 -78 1769 -78 
Q 1091 -78 675 323 
Q 259 725 259 1325 
Q 259 1772 486 2073 
Q 713 2375 1131 2484 
z
M 1019 3438 
Q 1019 3113 1228 2906 
Q 1438 2700 1772 2700 
Q 2097 2700 2305 2904 
Q 2513 3109 2513 3406 
Q 2513 3716 2298 3927 
Q 2084 4138 1766 4138 
Q 1444 4138 1231 3931 
Q 1019 3725 1019 3438 
z
M 838 1322 
Q 838 1081 952 856 
Q 1066 631 1291 507 
Q 1516 384 1775 384 
Q 2178 384 2440 643 
Q 2703 903 2703 1303 
Q 2703 1709 2433 1975 
Q 2163 2241 1756 2241 
Q 1359 2241 1098 1978 
Q 838 1716 838 1322 
z
" transform="scale(0.015625)"/>
       </defs>
       <use xlink:href="#ArialMT-38"/>
       <use xlink:href="#ArialMT-30" transform="translate(55.615234 0)"/>
      </g>
     </g>
    </g>
    <g id="ytick_20">
     <g id="line2d_78">
      <g>
       <use xlink:href="#m119b3b670a" x="465.608102" y="278.294844" style="fill: #262626; stroke: #262626; stroke-width: 1.25"/>
      </g>
     </g>
     <g id="text_59">
      <!-- 90 -->
      <g style="fill: #262626" transform="translate(443.87404 282.231641) scale(0.11 -0.11)">
       <defs>
        <path id="ArialMT-39" d="M 350 1059 
L 891 1109 
Q 959 728 1153 556 
Q 1347 384 1650 384 
Q 1909 384 2104 503 
Q 2300 622 2425 820 
Q 2550 1019 2634 1356 
Q 2719 1694 2719 2044 
Q 2719 2081 2716 2156 
Q 2547 1888 2255 1720 
Q 1963 1553 1622 1553 
Q 1053 1553 659 1965 
Q 266 2378 266 3053 
Q 266 3750 677 4175 
Q 1088 4600 1706 4600 
Q 2153 4600 2523 4359 
Q 2894 4119 3086 3673 
Q 3278 3228 3278 2384 
Q 3278 1506 3087 986 
Q 2897 466 2520 194 
Q 2144 -78 1638 -78 
Q 1100 -78 759 220 
Q 419 519 350 1059 
z
M 2653 3081 
Q 2653 3566 2395 3850 
Q 2138 4134 1775 4134 
Q 1400 4134 1122 3828 
Q 844 3522 844 3034 
Q 844 2597 1108 2323 
Q 1372 2050 1759 2050 
Q 2150 2050 2401 2323 
Q 2653 2597 2653 3081 
z
" transform="scale(0.015625)"/>
       </defs>
       <use xlink:href="#ArialMT-39"/>
       <use xlink:href="#ArialMT-30" transform="translate(55.615234 0)"/>
      </g>
     </g>
    </g>
    <g id="ytick_21">
     <g id="line2d_79">
      <g>
       <use xlink:href="#m119b3b670a" x="465.608102" y="254.262109" style="fill: #262626; stroke: #262626; stroke-width: 1.25"/>
      </g>
     </g>
     <g id="text_60">
      <!-- 100 -->
      <g style="fill: #262626" transform="translate(437.757008 258.198906) scale(0.11 -0.11)">
       <use xlink:href="#ArialMT-31"/>
       <use xlink:href="#ArialMT-30" transform="translate(55.615234 0)"/>
       <use xlink:href="#ArialMT-30" transform="translate(111.230469 0)"/>
      </g>
     </g>
    </g>
    <g id="ytick_22">
     <g id="line2d_80">
      <g>
       <use xlink:href="#m119b3b670a" x="465.608102" y="230.229375" style="fill: #262626; stroke: #262626; stroke-width: 1.25"/>
      </g>
     </g>
     <g id="text_61">
      <!-- 110 -->
      <g style="fill: #262626" transform="translate(438.568258 234.166172) scale(0.11 -0.11)">
       <use xlink:href="#ArialMT-31"/>
       <use xlink:href="#ArialMT-31" transform="translate(48.240234 0)"/>
       <use xlink:href="#ArialMT-30" transform="translate(103.855469 0)"/>
      </g>
     </g>
    </g>
    <g id="text_62">
     <!-- PDC, mg/g DW -->
     <g style="fill: #262626" transform="translate(431.231383 343.331016) rotate(-90) scale(0.12 -0.12)">
      <defs>
       <path id="ArialMT-44" d="M 494 0 
L 494 4581 
L 2072 4581 
Q 2606 4581 2888 4516 
Q 3281 4425 3559 4188 
Q 3922 3881 4101 3404 
Q 4281 2928 4281 2316 
Q 4281 1794 4159 1391 
Q 4038 988 3847 723 
Q 3656 459 3429 307 
Q 3203 156 2883 78 
Q 2563 0 2147 0 
L 494 0 
z
M 1100 541 
L 2078 541 
Q 2531 541 2789 625 
Q 3047 709 3200 863 
Q 3416 1078 3536 1442 
Q 3656 1806 3656 2325 
Q 3656 3044 3420 3430 
Q 3184 3816 2847 3947 
Q 2603 4041 2063 4041 
L 1100 4041 
L 1100 541 
z
" transform="scale(0.015625)"/>
       <path id="ArialMT-2c" d="M 569 0 
L 569 641 
L 1209 641 
L 1209 0 
Q 1209 -353 1084 -570 
Q 959 -788 688 -906 
L 531 -666 
Q 709 -588 793 -436 
Q 878 -284 888 0 
L 569 0 
z
" transform="scale(0.015625)"/>
       <path id="ArialMT-57" d="M 1294 0 
L 78 4581 
L 700 4581 
L 1397 1578 
Q 1509 1106 1591 641 
Q 1766 1375 1797 1488 
L 2669 4581 
L 3400 4581 
L 4056 2263 
Q 4303 1400 4413 641 
Q 4500 1075 4641 1638 
L 5359 4581 
L 5969 4581 
L 4713 0 
L 4128 0 
L 3163 3491 
Q 3041 3928 3019 4028 
Q 2947 3713 2884 3491 
L 1913 0 
L 1294 0 
z
" transform="scale(0.015625)"/>
      </defs>
      <use xlink:href="#ArialMT-50"/>
      <use xlink:href="#ArialMT-44" transform="translate(66.699219 0)"/>
      <use xlink:href="#ArialMT-43" transform="translate(138.916016 0)"/>
      <use xlink:href="#ArialMT-2c" transform="translate(211.132812 0)"/>
      <use xlink:href="#ArialMT-20" transform="translate(238.916016 0)"/>
      <use xlink:href="#ArialMT-6d" transform="translate(266.699219 0)"/>
      <use xlink:href="#ArialMT-67" transform="translate(350 0)"/>
      <use xlink:href="#ArialMT-2f" transform="translate(405.615234 0)"/>
      <use xlink:href="#ArialMT-67" transform="translate(433.398438 0)"/>
      <use xlink:href="#ArialMT-20" transform="translate(489.013672 0)"/>
      <use xlink:href="#ArialMT-44" transform="translate(516.796875 0)"/>
      <use xlink:href="#ArialMT-57" transform="translate(589.013672 0)"/>
     </g>
    </g>
   </g>
   <g id="patch_28">
    <path d="M 468.915882 342.849363 
L 495.378122 342.849363 
L 495.378122 331.228319 
L 468.915882 331.228319 
L 468.915882 342.849363 
z
" clip-path="url(#p767ce3c5f2)" style="fill: #ffffff; stroke: #000000; stroke-linejoin: miter"/>
   </g>
   <g id="line2d_81">
    <path d="M 482.147002 342.849363 
L 482.147002 349.581141 
" clip-path="url(#p767ce3c5f2)" style="fill: none; stroke: #000000"/>
   </g>
   <g id="line2d_82">
    <path d="M 482.147002 331.228319 
L 482.147002 319.568113 
" clip-path="url(#p767ce3c5f2)" style="fill: none; stroke: #000000"/>
   </g>
   <g id="line2d_83">
    <path d="M 475.531442 349.581141 
L 488.762562 349.581141 
" clip-path="url(#p767ce3c5f2)" style="fill: none; stroke: #000000; stroke-linecap: round"/>
   </g>
   <g id="line2d_84">
    <path d="M 475.531442 319.568113 
L 488.762562 319.568113 
" clip-path="url(#p767ce3c5f2)" style="fill: none; stroke: #000000; stroke-linecap: round"/>
   </g>
   <g id="line2d_85"/>
   <g id="patch_29">
    <path d="M 501.993682 317.863134 
L 528.455921 317.863134 
L 528.455921 274.614712 
L 501.993682 274.614712 
L 501.993682 317.863134 
z
" clip-path="url(#p767ce3c5f2)" style="fill: #ffffff; stroke: #000000; stroke-linejoin: miter"/>
   </g>
   <g id="line2d_86">
    <path d="M 515.224801 317.863134 
L 515.224801 322.01149 
" clip-path="url(#p767ce3c5f2)" style="fill: none; stroke: #000000"/>
   </g>
   <g id="line2d_87">
    <path d="M 515.224801 274.614712 
L 515.224801 243.710577 
" clip-path="url(#p767ce3c5f2)" style="fill: none; stroke: #000000"/>
   </g>
   <g id="line2d_88">
    <path d="M 508.609241 322.01149 
L 521.840361 322.01149 
" clip-path="url(#p767ce3c5f2)" style="fill: none; stroke: #000000; stroke-linecap: round"/>
   </g>
   <g id="line2d_89">
    <path d="M 508.609241 243.710577 
L 521.840361 243.710577 
" clip-path="url(#p767ce3c5f2)" style="fill: none; stroke: #000000; stroke-linecap: round"/>
   </g>
   <g id="line2d_90"/>
   <g id="patch_30">
    <path d="M 535.071481 327.395675 
L 561.533721 327.395675 
L 561.533721 300.746528 
L 535.071481 300.746528 
L 535.071481 327.395675 
z
" clip-path="url(#p767ce3c5f2)" style="fill: #ffffff; stroke: #000000; stroke-linejoin: miter"/>
   </g>
   <g id="line2d_91">
    <path d="M 548.302601 327.395675 
L 548.302601 337.352937 
" clip-path="url(#p767ce3c5f2)" style="fill: none; stroke: #000000"/>
   </g>
   <g id="line2d_92">
    <path d="M 548.302601 300.746528 
L 548.302601 283.369938 
" clip-path="url(#p767ce3c5f2)" style="fill: none; stroke: #000000"/>
   </g>
   <g id="line2d_93">
    <path d="M 541.687041 337.352937 
L 554.918161 337.352937 
" clip-path="url(#p767ce3c5f2)" style="fill: none; stroke: #000000; stroke-linecap: round"/>
   </g>
   <g id="line2d_94">
    <path d="M 541.687041 283.369938 
L 554.918161 283.369938 
" clip-path="url(#p767ce3c5f2)" style="fill: none; stroke: #000000; stroke-linecap: round"/>
   </g>
   <g id="line2d_95"/>
   <g id="patch_31">
    <path d="M 568.14928 347.158902 
L 594.61152 347.158902 
L 594.61152 330.541273 
L 568.14928 330.541273 
L 568.14928 347.158902 
z
" clip-path="url(#p767ce3c5f2)" style="fill: #ffffff; stroke: #000000; stroke-linejoin: miter"/>
   </g>
   <g id="line2d_96">
    <path d="M 581.3804 347.158902 
L 581.3804 347.934153 
" clip-path="url(#p767ce3c5f2)" style="fill: none; stroke: #000000"/>
   </g>
   <g id="line2d_97">
    <path d="M 581.3804 330.541273 
L 581.3804 318.714058 
" clip-path="url(#p767ce3c5f2)" style="fill: none; stroke: #000000"/>
   </g>
   <g id="line2d_98">
    <path d="M 574.76484 347.934153 
L 587.99596 347.934153 
" clip-path="url(#p767ce3c5f2)" style="fill: none; stroke: #000000; stroke-linecap: round"/>
   </g>
   <g id="line2d_99">
    <path d="M 574.76484 318.714058 
L 587.99596 318.714058 
" clip-path="url(#p767ce3c5f2)" style="fill: none; stroke: #000000; stroke-linecap: round"/>
   </g>
   <g id="line2d_100"/>
   <g id="line2d_101">
    <path d="M 468.915882 333.996009 
L 495.378122 333.996009 
" clip-path="url(#p767ce3c5f2)" style="fill: none; stroke: #000000"/>
   </g>
   <g id="line2d_102">
    <path d="M 501.993682 302.453026 
L 528.455921 302.453026 
" clip-path="url(#p767ce3c5f2)" style="fill: none; stroke: #000000"/>
   </g>
   <g id="line2d_103">
    <path d="M 535.071481 312.354 
L 561.533721 312.354 
" clip-path="url(#p767ce3c5f2)" style="fill: none; stroke: #000000"/>
   </g>
   <g id="line2d_104">
    <path d="M 568.14928 338.253839 
L 594.61152 338.253839 
" clip-path="url(#p767ce3c5f2)" style="fill: none; stroke: #000000"/>
   </g>
   <g id="patch_32">
    <path d="M 465.608102 374.425781 
L 465.608102 230.229375 
" style="fill: none; stroke: #262626; stroke-width: 1.25; stroke-linejoin: miter; stroke-linecap: square"/>
   </g>
   <g id="patch_33">
    <path d="M 465.608102 374.425781 
L 597.9193 374.425781 
" style="fill: none; stroke: #262626; stroke-width: 1.25; stroke-linejoin: miter; stroke-linecap: square"/>
   </g>
   <g id="text_63">
    <!-- a -->
    <g style="fill: #262626" transform="translate(478.254346 315.977511) scale(0.14 -0.14)">
     <use xlink:href="#ArialMT-61"/>
    </g>
   </g>
   <g id="text_64">
    <!-- a -->
    <g style="fill: #262626" transform="translate(511.332145 240.119975) scale(0.14 -0.14)">
     <use xlink:href="#ArialMT-61"/>
    </g>
   </g>
   <g id="text_65">
    <!-- a -->
    <g style="fill: #262626" transform="translate(544.409945 279.779337) scale(0.14 -0.14)">
     <use xlink:href="#ArialMT-61"/>
    </g>
   </g>
   <g id="text_66">
    <!-- a -->
    <g style="fill: #262626" transform="translate(577.487744 315.123456) scale(0.14 -0.14)">
     <use xlink:href="#ArialMT-61"/>
    </g>
   </g>
  </g>
  <g id="text_67">
   <!-- RUBY -->
   <g style="fill: #262626" transform="translate(21.63015 117.842625) rotate(-90) scale(0.2016 -0.2016)">
    <defs>
     <path id="Arial-BoldMT-52" d="M 469 0 
L 469 4581 
L 2416 4581 
Q 3150 4581 3483 4457 
Q 3816 4334 4016 4018 
Q 4216 3703 4216 3297 
Q 4216 2781 3912 2445 
Q 3609 2109 3006 2022 
Q 3306 1847 3501 1637 
Q 3697 1428 4028 894 
L 4588 0 
L 3481 0 
L 2813 997 
Q 2456 1531 2325 1670 
Q 2194 1809 2047 1861 
Q 1900 1913 1581 1913 
L 1394 1913 
L 1394 0 
L 469 0 
z
M 1394 2644 
L 2078 2644 
Q 2744 2644 2909 2700 
Q 3075 2756 3169 2893 
Q 3263 3031 3263 3238 
Q 3263 3469 3139 3611 
Q 3016 3753 2791 3791 
Q 2678 3806 2116 3806 
L 1394 3806 
L 1394 2644 
z
" transform="scale(0.015625)"/>
     <path id="Arial-BoldMT-55" d="M 459 4581 
L 1384 4581 
L 1384 2100 
Q 1384 1509 1419 1334 
Q 1478 1053 1701 883 
Q 1925 713 2313 713 
Q 2706 713 2906 873 
Q 3106 1034 3147 1268 
Q 3188 1503 3188 2047 
L 3188 4581 
L 4113 4581 
L 4113 2175 
Q 4113 1350 4038 1009 
Q 3963 669 3761 434 
Q 3559 200 3221 61 
Q 2884 -78 2341 -78 
Q 1684 -78 1345 73 
Q 1006 225 809 467 
Q 613 709 550 975 
Q 459 1369 459 2138 
L 459 4581 
z
" transform="scale(0.015625)"/>
     <path id="Arial-BoldMT-42" d="M 469 4581 
L 2300 4581 
Q 2844 4581 3111 4536 
Q 3378 4491 3589 4347 
Q 3800 4203 3940 3964 
Q 4081 3725 4081 3428 
Q 4081 3106 3907 2837 
Q 3734 2569 3438 2434 
Q 3856 2313 4081 2019 
Q 4306 1725 4306 1328 
Q 4306 1016 4161 720 
Q 4016 425 3764 248 
Q 3513 72 3144 31 
Q 2913 6 2028 0 
L 469 0 
L 469 4581 
z
M 1394 3819 
L 1394 2759 
L 2000 2759 
Q 2541 2759 2672 2775 
Q 2909 2803 3045 2939 
Q 3181 3075 3181 3297 
Q 3181 3509 3064 3642 
Q 2947 3775 2716 3803 
Q 2578 3819 1925 3819 
L 1394 3819 
z
M 1394 1997 
L 1394 772 
L 2250 772 
Q 2750 772 2884 800 
Q 3091 838 3220 983 
Q 3350 1128 3350 1372 
Q 3350 1578 3250 1722 
Q 3150 1866 2961 1931 
Q 2772 1997 2141 1997 
L 1394 1997 
z
" transform="scale(0.015625)"/>
     <path id="Arial-BoldMT-59" d="M 1669 0 
L 1669 1928 
L -9 4581 
L 1075 4581 
L 2153 2769 
L 3209 4581 
L 4275 4581 
L 2591 1922 
L 2591 0 
L 1669 0 
z
" transform="scale(0.015625)"/>
    </defs>
    <use xlink:href="#Arial-BoldMT-52"/>
    <use xlink:href="#Arial-BoldMT-55" transform="translate(72.216797 0)"/>
    <use xlink:href="#Arial-BoldMT-42" transform="translate(144.433594 0)"/>
    <use xlink:href="#Arial-BoldMT-59" transform="translate(216.650391 0)"/>
   </g>
  </g>
  <g id="text_68">
   <!-- PDC -->
   <g style="fill: #262626" transform="translate(21.63015 326.562975) rotate(-90) scale(0.2016 -0.2016)">
    <defs>
     <path id="Arial-BoldMT-50" d="M 466 0 
L 466 4581 
L 1950 4581 
Q 2794 4581 3050 4513 
Q 3444 4409 3709 4064 
Q 3975 3719 3975 3172 
Q 3975 2750 3822 2462 
Q 3669 2175 3433 2011 
Q 3197 1847 2953 1794 
Q 2622 1728 1994 1728 
L 1391 1728 
L 1391 0 
L 466 0 
z
M 1391 3806 
L 1391 2506 
L 1897 2506 
Q 2444 2506 2628 2578 
Q 2813 2650 2917 2803 
Q 3022 2956 3022 3159 
Q 3022 3409 2875 3571 
Q 2728 3734 2503 3775 
Q 2338 3806 1838 3806 
L 1391 3806 
z
" transform="scale(0.015625)"/>
     <path id="Arial-BoldMT-44" d="M 463 4581 
L 2153 4581 
Q 2725 4581 3025 4494 
Q 3428 4375 3715 4072 
Q 4003 3769 4153 3330 
Q 4303 2891 4303 2247 
Q 4303 1681 4163 1272 
Q 3991 772 3672 463 
Q 3431 228 3022 97 
Q 2716 0 2203 0 
L 463 0 
L 463 4581 
z
M 1388 3806 
L 1388 772 
L 2078 772 
Q 2466 772 2638 816 
Q 2863 872 3011 1006 
Q 3159 1141 3253 1448 
Q 3347 1756 3347 2288 
Q 3347 2819 3253 3103 
Q 3159 3388 2990 3547 
Q 2822 3706 2563 3763 
Q 2369 3806 1803 3806 
L 1388 3806 
z
" transform="scale(0.015625)"/>
     <path id="Arial-BoldMT-43" d="M 3397 1684 
L 4294 1400 
Q 4088 650 3608 286 
Q 3128 -78 2391 -78 
Q 1478 -78 890 545 
Q 303 1169 303 2250 
Q 303 3394 893 4026 
Q 1484 4659 2447 4659 
Q 3288 4659 3813 4163 
Q 4125 3869 4281 3319 
L 3366 3100 
Q 3284 3456 3026 3662 
Q 2769 3869 2400 3869 
Q 1891 3869 1573 3503 
Q 1256 3138 1256 2319 
Q 1256 1450 1568 1081 
Q 1881 713 2381 713 
Q 2750 713 3015 947 
Q 3281 1181 3397 1684 
z
" transform="scale(0.015625)"/>
    </defs>
    <use xlink:href="#Arial-BoldMT-50"/>
    <use xlink:href="#Arial-BoldMT-44" transform="translate(66.699219 0)"/>
    <use xlink:href="#Arial-BoldMT-43" transform="translate(138.916016 0)"/>
   </g>
  </g>
  <g id="legend_2">
   <g id="text_69">
    <!-- Delivery -->
    <g style="fill: #262626" transform="translate(107.733742 128.738931) scale(0.09716 -0.09716)">
     <defs>
      <path id="ArialMT-79" d="M 397 -1278 
L 334 -750 
Q 519 -800 656 -800 
Q 844 -800 956 -737 
Q 1069 -675 1141 -563 
Q 1194 -478 1313 -144 
Q 1328 -97 1363 -6 
L 103 3319 
L 709 3319 
L 1400 1397 
Q 1534 1031 1641 628 
Q 1738 1016 1872 1384 
L 2581 3319 
L 3144 3319 
L 1881 -56 
Q 1678 -603 1566 -809 
Q 1416 -1088 1222 -1217 
Q 1028 -1347 759 -1347 
Q 597 -1347 397 -1278 
z
" transform="scale(0.015625)"/>
     </defs>
     <use xlink:href="#ArialMT-44"/>
     <use xlink:href="#ArialMT-65" transform="translate(72.216797 0)"/>
     <use xlink:href="#ArialMT-6c" transform="translate(127.832031 0)"/>
     <use xlink:href="#ArialMT-69" transform="translate(150.048828 0)"/>
     <use xlink:href="#ArialMT-76" transform="translate(172.265625 0)"/>
     <use xlink:href="#ArialMT-65" transform="translate(222.265625 0)"/>
     <use xlink:href="#ArialMT-72" transform="translate(277.880859 0)"/>
     <use xlink:href="#ArialMT-79" transform="translate(311.181641 0)"/>
    </g>
   </g>
   <g id="line2d_105">
    <path d="M 84.139043 139.195776 
L 93.855043 139.195776 
L 103.571043 139.195776 
" style="fill: none; stroke: #000000; stroke-width: 1.5; stroke-linecap: round"/>
   </g>
   <g id="text_70">
    <!-- co-infiltration -->
    <g style="fill: #262626" transform="translate(111.343843 142.596376) scale(0.09716 -0.09716)">
     <use xlink:href="#ArialMT-63"/>
     <use xlink:href="#ArialMT-6f" transform="translate(50 0)"/>
     <use xlink:href="#ArialMT-2d" transform="translate(105.615234 0)"/>
     <use xlink:href="#ArialMT-69" transform="translate(138.916016 0)"/>
     <use xlink:href="#ArialMT-6e" transform="translate(161.132812 0)"/>
     <use xlink:href="#ArialMT-66" transform="translate(216.748047 0)"/>
     <use xlink:href="#ArialMT-69" transform="translate(244.53125 0)"/>
     <use xlink:href="#ArialMT-6c" transform="translate(266.748047 0)"/>
     <use xlink:href="#ArialMT-74" transform="translate(288.964844 0)"/>
     <use xlink:href="#ArialMT-72" transform="translate(316.748047 0)"/>
     <use xlink:href="#ArialMT-61" transform="translate(350.048828 0)"/>
     <use xlink:href="#ArialMT-74" transform="translate(405.664062 0)"/>
     <use xlink:href="#ArialMT-69" transform="translate(433.447266 0)"/>
     <use xlink:href="#ArialMT-6f" transform="translate(455.664062 0)"/>
     <use xlink:href="#ArialMT-6e" transform="translate(511.279297 0)"/>
    </g>
   </g>
   <g id="line2d_106">
    <path d="M 84.139043 152.939361 
L 93.855043 152.939361 
L 103.571043 152.939361 
" style="fill: none; stroke-dasharray: 1.5,2.475; stroke-dashoffset: 0; stroke: #000000; stroke-width: 1.5"/>
   </g>
   <g id="text_71">
    <!-- T2A -->
    <g style="fill: #262626" transform="translate(111.343843 156.339961) scale(0.09716 -0.09716)">
     <use xlink:href="#ArialMT-54"/>
     <use xlink:href="#ArialMT-32" transform="translate(61.083984 0)"/>
     <use xlink:href="#ArialMT-41" transform="translate(116.699219 0)"/>
    </g>
   </g>
  </g>
 </g>
 <defs>
  <clipPath id="pf0f149273a">
   <rect x="75.075706" y="21.789375" width="132.311198" height="144.196406"/>
  </clipPath>
  <clipPath id="p3f159e5eb0">
   <rect x="270.341904" y="21.789375" width="132.311198" height="144.196406"/>
  </clipPath>
  <clipPath id="p8934674e5e">
   <rect x="465.608102" y="21.789375" width="132.311198" height="144.196406"/>
  </clipPath>
  <clipPath id="p1a96d23c62">
   <rect x="270.341904" y="230.229375" width="132.311198" height="144.196406"/>
  </clipPath>
  <clipPath id="p767ce3c5f2">
   <rect x="465.608102" y="230.229375" width="132.311198" height="144.196406"/>
  </clipPath>
 </defs>
</svg>
